<?xml version="1.0" encoding="utf-8"?>
<!-- Generator: Adobe Illustrator 24.0.0, SVG Export Plug-In . SVG Version: 6.00 Build 0)  -->
<svg version="1.1" xmlns="http://www.w3.org/2000/svg" xmlns:xlink="http://www.w3.org/1999/xlink" x="0px" y="0px"
	 viewBox="0 0 100 100" style="enable-background:new 0 0 100 100;" xml:space="preserve">
<style type="text/css">
	.st0{display:none;}
	.st1{display:inline;}
	.st2{fill:#181818;}
	.st3{fill:#FFFFFF;}
</style>
<g id="afidus-menu">
	<path class="st2" d="M95.4,25H4.6c-2,0-3.6-1.6-3.6-3.6V10.6C1,8.6,2.6,7,4.6,7h90.8c2,0,3.6,1.6,3.6,3.6v10.8
		C99,23.4,97.4,25,95.4,25z"/>
	<path class="st2" d="M95.4,59H4.6c-2,0-3.6-1.6-3.6-3.6V44.6c0-2,1.6-3.6,3.6-3.6h90.8c2,0,3.6,1.6,3.6,3.6v10.8
		C99,57.4,97.4,59,95.4,59z"/>
	<path class="st2" d="M95.4,93H4.6c-2,0-3.6-1.6-3.6-3.6V78.6c0-2,1.6-3.6,3.6-3.6h90.8c2,0,3.6,1.6,3.6,3.6v10.8
		C99,91.4,97.4,93,95.4,93z"/>
</g>
</svg>