<svg xmlns="http://www.w3.org/2000/svg" viewBox="0 0 425.74 289.09"><defs><style>.cls-1,.cls-2,.cls-4,.cls-5{fill:none;stroke-linecap:round;}.cls-1,.cls-2{stroke:#1d1d1b;stroke-miterlimit:10;}.cls-1{stroke-width:4px;}.cls-2{stroke-width:2px;}.cls-3{fill:#1d1d1b;}.cls-4,.cls-5{stroke:#42ae5a;stroke-linejoin:round;stroke-width:3px;}.cls-4{stroke-dasharray:3 6;}</style></defs><title>Asset 2</title><g id="Layer_2" data-name="Layer 2"><g id="Afidus_microSD" data-name="Afidus microSD"><line class="cls-1" x1="284.75" y1="107.5" x2="285.34" y2="107.21"/><line class="cls-2" x1="269.15" y1="103.87" x2="266.82" y2="104.62"/><line class="cls-2" x1="273.26" y1="104.31" x2="269.96" y2="103.03"/><line class="cls-2" x1="266.21" y1="104.63" x2="269.38" y2="105.95"/><line class="cls-2" x1="268.65" y1="84.94" x2="266.32" y2="85.69"/><line class="cls-2" x1="268.82" y1="84.72" x2="266.49" y2="85.47"/><line class="cls-2" x1="269.71" y1="84.73" x2="273.02" y2="85.92"/><line class="cls-2" x1="269.96" y1="85.06" x2="269.96" y2="103.03"/><line class="cls-2" x1="266.21" y1="85.96" x2="266.21" y2="104.63"/><line class="cls-1" x1="261.77" y1="88.01" x2="261.77" y2="113.85"/><line class="cls-1" x1="280.65" y1="73.05" x2="266.54" y2="80.24"/><line class="cls-1" x1="291.11" y1="102.12" x2="291.11" y2="97.43"/><line class="cls-1" x1="291.11" y1="97.43" x2="291.11" y2="96.56"/><line class="cls-1" x1="289.2" y1="105.23" x2="285.34" y2="107.21"/><line class="cls-1" x1="285.43" y1="97.32" x2="289.2" y2="95.4"/><line class="cls-1" x1="284.75" y1="107.5" x2="266.54" y2="116.77"/><line class="cls-1" x1="285.4" y1="90.93" x2="285.43" y2="75.96"/><line class="cls-1" x1="285.43" y1="97.32" x2="285.4" y2="90.93"/><line class="cls-1" x1="284.75" y1="107.5" x2="285.34" y2="107.21"/><path class="cls-2" d="M269.15,103.87A1,1,0,0,0,270,103"/><path class="cls-2" d="M270,85.06a1.58,1.58,0,0,0-1,0"/><path class="cls-2" d="M268.93,85.05c0-.07-.09-.12-.2-.12l-.08,0"/><path class="cls-2" d="M269.71,84.73a1.43,1.43,0,0,0-.89,0"/><path class="cls-1" d="M261.77,113.85a4.85,4.85,0,0,0,.35,1.86,4.67,4.67,0,0,0,1,1.21"/><path class="cls-1" d="M263.15,116.92a3.48,3.48,0,0,0,3.39-.15"/><path class="cls-2" d="M266.21,104.63l.13,0h.27l.21,0"/><path class="cls-1" d="M266.54,80.24a13.66,13.66,0,0,0-1.83,1.34,9.18,9.18,0,0,0-1.55,1.94,9.82,9.82,0,0,0-1,2.26,12.64,12.64,0,0,0-.35,2.23"/><path class="cls-2" d="M270,85.06s0-.06,0-.09a.34.34,0,0,0-.06-.12l-.09-.07a.15.15,0,0,0-.09,0"/><path class="cls-1" d="M289.36,105.11a3.79,3.79,0,0,0,1.75-3"/><path class="cls-1" d="M289.2,105.23l.09,0a.46.46,0,0,1,.07-.07"/><path class="cls-1" d="M290.55,95.34a1.5,1.5,0,0,0-.52-.14,1.46,1.46,0,0,0-.61.11"/><path class="cls-1" d="M289.42,95.31l-.12,0-.1.05"/><path class="cls-1" d="M291.11,96.56a2.22,2.22,0,0,0-.15-.74,2.05,2.05,0,0,0-.41-.48"/><path class="cls-1" d="M284,72.9a4.56,4.56,0,0,0-1.54-.37,5,5,0,0,0-1.84.52"/><path class="cls-1" d="M285.43,76a4.81,4.81,0,0,0-.37-1.85,4.49,4.49,0,0,0-1-1.21"/><line class="cls-1" x1="222.68" y1="57.97" x2="222.68" y2="197.07"/><line class="cls-1" x1="241.97" y1="232.5" x2="324.98" y2="283.65"/><path class="cls-1" d="M222.68,58a43,43,0,0,1,.45-5.08,20.43,20.43,0,0,1,2.24-6.37A15.38,15.38,0,0,1,229,42.06,24.5,24.5,0,0,1,232,40"/><path class="cls-1" d="M242,232.5c-1.24-.84-2.47-1.69-3.65-2.63a33.06,33.06,0,0,1-3.37-3.22,44,44,0,0,1-4.08-5.1c-.9-1.31-1.74-2.66-2.5-4a47.13,47.13,0,0,1-2.5-5.28,45.05,45.05,0,0,1-1.84-5.47,36.86,36.86,0,0,1-1-4.89c-.2-1.59-.28-3.2-.35-4.8"/><path class="cls-1" d="M412.8,249.75,341.62,286l-2.5.78a15,15,0,0,1-4.39.24,18.55,18.55,0,0,1-4.85-1,34.45,34.45,0,0,1-4.9-2.36"/><path class="cls-1" d="M412.8,249.75a10.66,10.66,0,0,0,1.55-.62"/><path class="cls-1" d="M414.44,249.08l-.05,0,0,0"/><path class="cls-1" d="M329,244.61a5.18,5.18,0,0,0,3.37-4.28"/><path class="cls-1" d="M311.71,240.33a10.14,10.14,0,0,0,1.67,3.16,8.67,8.67,0,0,0,4.47,2.13,16.56,16.56,0,0,0,5.83.42,27.16,27.16,0,0,0,5.29-1.43"/><path class="cls-1" d="M332.34,240.33a9.31,9.31,0,0,0-1.38-2.89,7.75,7.75,0,0,0-3.78-2.11,17.64,17.64,0,0,0-10.31,0,7.75,7.75,0,0,0-3.78,2.11,9.31,9.31,0,0,0-1.38,2.89"/><line class="cls-2" x1="323.12" y1="186.66" x2="345.67" y2="200.55"/><line class="cls-1" x1="377.84" y1="233.24" x2="400.4" y2="247.13"/><line class="cls-2" x1="383.57" y1="223.91" x2="406.12" y2="237.81"/><line class="cls-1" x1="423.74" y1="231.12" x2="423.74" y2="92.01"/><line class="cls-1" x1="261.77" y1="88.01" x2="261.77" y2="113.85"/><line class="cls-1" x1="280.65" y1="73.05" x2="266.54" y2="80.24"/><line class="cls-1" x1="291.11" y1="102.12" x2="291.11" y2="97.43"/><line class="cls-1" x1="291.11" y1="97.43" x2="291.11" y2="96.56"/><line class="cls-1" x1="289.2" y1="105.23" x2="285.34" y2="107.21"/><line class="cls-1" x1="285.43" y1="97.32" x2="289.2" y2="95.4"/><line class="cls-1" x1="284.75" y1="107.5" x2="266.54" y2="116.77"/><line class="cls-1" x1="285.4" y1="90.93" x2="285.43" y2="75.96"/><line class="cls-1" x1="285.43" y1="97.32" x2="285.4" y2="90.93"/><line class="cls-1" x1="284.75" y1="107.5" x2="285.34" y2="107.21"/><line class="cls-1" x1="321.46" y1="5.43" x2="404.46" y2="56.59"/><line class="cls-1" x1="231.99" y1="40.01" x2="303.35" y2="3.67"/><line class="cls-2" x1="307.51" y1="157.81" x2="307.51" y2="61.26"/><line class="cls-1" x1="339.93" y1="209.87" x2="377.84" y2="233.24"/><line class="cls-2" x1="345.67" y1="200.55" x2="383.57" y2="223.91"/><line class="cls-1" x1="296.57" y1="157.51" x2="296.57" y2="60.97"/><line class="cls-1" x1="296.57" y1="60.97" x2="296.57" y2="20.54"/><line class="cls-1" x1="296.57" y1="20.54" x2="296.57" y2="18.42"/><line class="cls-1" x1="317.39" y1="195.98" x2="339.93" y2="209.87"/><path class="cls-1" d="M414.35,249.13l.09-.06"/><path class="cls-1" d="M412.8,249.75a10.66,10.66,0,0,0,1.55-.62"/><path class="cls-1" d="M412.8,249.75a21.09,21.09,0,0,1-5.87.12,21.51,21.51,0,0,1-6.53-2.73"/><path class="cls-2" d="M417.16,239a8.22,8.22,0,0,1-5.07,1.05,17.23,17.23,0,0,1-6-2.22"/><path class="cls-1" d="M423.74,231.12a36,36,0,0,1-.94,7.21,18.49,18.49,0,0,1-1.74,4.23,15.35,15.35,0,0,1-3.6,4.47,22.5,22.5,0,0,1-3,2"/><path class="cls-1" d="M261.77,113.85a4.85,4.85,0,0,0,.35,1.86,4.67,4.67,0,0,0,1,1.21"/><path class="cls-1" d="M263.15,116.92a3.48,3.48,0,0,0,3.39-.15"/><path class="cls-1" d="M266.54,80.24a13.66,13.66,0,0,0-1.83,1.34,9.18,9.18,0,0,0-1.55,1.94,9.82,9.82,0,0,0-1,2.26,12.64,12.64,0,0,0-.35,2.23"/><path class="cls-1" d="M289.36,105.11a3.79,3.79,0,0,0,1.75-3"/><path class="cls-1" d="M289.2,105.23l.09,0a.46.46,0,0,1,.07-.07"/><path class="cls-1" d="M290.55,95.34a1.5,1.5,0,0,0-.52-.14,1.46,1.46,0,0,0-.61.11"/><path class="cls-1" d="M289.42,95.31l-.12,0-.1.05"/><path class="cls-1" d="M291.11,96.56a2.22,2.22,0,0,0-.15-.74,2.05,2.05,0,0,0-.41-.48"/><path class="cls-1" d="M284,72.9a4.56,4.56,0,0,0-1.54-.37,5,5,0,0,0-1.84.52"/><path class="cls-1" d="M285.43,76a4.81,4.81,0,0,0-.37-1.85,4.49,4.49,0,0,0-1-1.21"/><path class="cls-1" d="M404.46,56.59c1.38.95,2.78,1.91,4.06,3a33.31,33.31,0,0,1,3,2.86,48.07,48.07,0,0,1,6.57,9.14,47.54,47.54,0,0,1,2.9,6.28c.56,1.46,1,3,1.45,4.45a38.79,38.79,0,0,1,1,4.77c.2,1.55.28,3.12.36,4.68"/><path class="cls-1" d="M423.73,91.76a.57.57,0,0,0,0,.13V92"/><path class="cls-2" d="M307.51,157.81a54.39,54.39,0,0,0,1.18,8.09,36.29,36.29,0,0,0,3.39,8.32,34.75,34.75,0,0,0,5.06,7.29,49.27,49.27,0,0,0,6,5.15"/><path class="cls-1" d="M296.57,157.51a71.6,71.6,0,0,0,1.6,10.79,47.83,47.83,0,0,0,4.51,11.1,46.44,46.44,0,0,0,6.74,9.72,66.34,66.34,0,0,0,8,6.86"/><path class="cls-1" d="M303.35,3.67a21.5,21.5,0,0,0-5,5.49c-1.44,2.67-1.61,6-1.78,9.25"/><path class="cls-2" d="M312.08,7.93a8.73,8.73,0,0,0-3.39,4.14,20.93,20.93,0,0,0-1.18,6.63V61.27"/><path class="cls-1" d="M303.35,3.67a23.07,23.07,0,0,1,3.95-1.36,14.76,14.76,0,0,1,4.4-.25,18.81,18.81,0,0,1,5.71,1.34,40.29,40.29,0,0,1,4,2"/></g><g id="Calque_13" data-name="Calque 13"><path class="cls-3" d="M5.44,98.06l5.44,2.43V97.24h49a42.28,42.28,0,0,0-3.49,3.47c-1.45,1.6-2.79,3.18-3.72,4.19a11.66,11.66,0,0,1-3,2.43,6.54,6.54,0,0,1-.87.41l-.1,0h-8a5.35,5.35,0,1,0,.07,2.91H49.1l.16,0c4.38-1.06,6.77-5.51,9.76-8.46a37.72,37.72,0,0,1,5-3.8,11.2,11.2,0,0,1,2.25-1.15h4.14a8.13,8.13,0,1,0,0-3.24H54.73c-1.56,0-3.79-1.42-5-2.27-2.5-1.69-4.21-4.14-6-6.48s-4.31-5.39-7.7-5.48c-.58,0-7.21.15-7.21.06V76h-11V87h11V82.74h7.8A26.13,26.13,0,0,1,41.35,87c.9,1.16,2.49,3.36,4.38,5.43A15,15,0,0,0,47.4,94H10.88V90.75L5.44,93.18,0,95.62Z"/><line class="cls-4" x1="93.3" y1="95.19" x2="243.51" y2="95.19"/><path class="cls-5" d="M234.33,106.85l14-9.42a2.7,2.7,0,0,0,0-4.48l-14-9.41"/></g></g></svg>