<svg xmlns="http://www.w3.org/2000/svg" viewBox="0 0 310.65 317.43"><defs><style>.cls-1,.cls-2,.cls-3,.cls-4,.cls-5{fill:none;stroke-linecap:round;}.cls-1,.cls-2,.cls-3{stroke:#1d1d1b;stroke-miterlimit:10;}.cls-1,.cls-4,.cls-5{stroke-width:3px;}.cls-2{stroke-width:2px;}.cls-3{stroke-width:4px;}.cls-4,.cls-5{stroke:#42ae5a;stroke-linejoin:round;}.cls-4{stroke-dasharray:3 6;}</style></defs><title>Asset 3</title><g id="Layer_2" data-name="Layer 2"><g id="Afidus_microSD" data-name="Afidus microSD"><line class="cls-1" x1="133.45" y1="173.38" x2="150.78" y2="169.78"/><line class="cls-1" x1="121.45" y1="177.82" x2="122.28" y2="177.64"/><path class="cls-1" d="M122.28,177.63a5.31,5.31,0,0,0,1.52-.57"/><path class="cls-1" d="M123.8,177.05a45.43,45.43,0,0,1,4.68-2.24,38.18,38.18,0,0,1,5-1.42"/><line class="cls-1" x1="133.59" y1="169.07" x2="150.84" y2="165.51"/><line class="cls-1" x1="150.83" y1="165.51" x2="150.83" y2="169.87"/><line class="cls-1" x1="121.4" y1="173.56" x2="122.43" y2="173.35"/><line class="cls-1" x1="121.4" y1="177.48" x2="121.4" y2="173.56"/><path class="cls-1" d="M122.43,173.34a5.2,5.2,0,0,0,1.54-.59"/><path class="cls-1" d="M124,172.75a49.61,49.61,0,0,1,4.67-2.23,43.37,43.37,0,0,1,5-1.44"/><polyline class="cls-2" points="100.81 118.97 100.81 193.95 94.53 196.12"/><line class="cls-3" x1="92.19" y1="107.28" x2="17.05" y2="133.25"/><line class="cls-2" x1="2" y1="146.89" x2="95.77" y2="114.47"/><line class="cls-3" x1="96.91" y1="195.3" x2="2" y2="228.11"/><line class="cls-3" x1="2" y1="228.11" x2="2" y2="146.89"/><path class="cls-3" d="M2,146.89c1.33-2.85,2.65-5.71,4.68-7.83,2.66-2.76,6.53-4.29,10.38-5.81"/><path class="cls-3" d="M89.16,50.81A30.87,30.87,0,0,1,90,45.68c.52-1.72,2.88-7.89,3.72-9.52"/><polyline class="cls-3" points="89.16 51.45 89.16 51.13 89.16 50.8"/><path class="cls-3" d="M214.17,61.38a17,17,0,0,0,2.6,5.5c1.69,2,4.41,3.21,7.11,4a32.63,32.63,0,0,0,19.43,0c2.71-.83,5.44-2,7.11-4a17,17,0,0,0,2.6-5.5"/><line class="cls-3" x1="52.22" y1="70.12" x2="91.76" y2="106.88"/><line class="cls-3" x1="91.76" y1="106.88" x2="91.76" y2="107.43"/><line class="cls-2" x1="115.58" y1="129.03" x2="115.58" y2="186.16"/><line class="cls-2" x1="115.58" y1="186.16" x2="159.02" y2="225.88"/><line class="cls-3" x1="96.91" y1="195.3" x2="143.23" y2="238.37"/><polyline class="cls-2" points="159.02 161.2 159.02 233.84 108.75 187.89 108.75 122.7"/><line class="cls-3" x1="47.58" y1="122.7" x2="47.58" y2="60.75"/><line class="cls-3" x1="308.65" y1="106.76" x2="308.65" y2="188.2"/><line class="cls-3" x1="166.07" y1="162.01" x2="166.07" y2="243.45"/><line class="cls-3" x1="293.45" y1="122.11" x2="185.46" y2="159.45"/><line class="cls-3" x1="291.91" y1="207.21" x2="183.91" y2="244.55"/><path class="cls-3" d="M185.46,159.46a72,72,0,0,1-9.36,2.16,69.88,69.88,0,0,1-10,.39"/><path class="cls-3" d="M183.91,244.55c-1.83.54-3.65,1.1-5.51,1.48a41.1,41.1,0,0,1-5.82.79,50.08,50.08,0,0,1-5.05.12,47.93,47.93,0,0,1-7.27-.76,44.32,44.32,0,0,1-5.29-1.29A39.7,39.7,0,0,1,150.1,243a28.82,28.82,0,0,1-3.7-2.1c-1.1-.76-2.14-1.63-3.17-2.5"/><path class="cls-3" d="M47.58,60.76a17.91,17.91,0,0,0,1.17,4.86,17.67,17.67,0,0,0,3.48,4.5"/><path class="cls-3" d="M308.65,188.2c0,.8-.07,1.61-.18,2.41a16.26,16.26,0,0,1-.79,3A18.24,18.24,0,0,1,306.6,196a18.58,18.58,0,0,1-1.83,2.73,22.64,22.64,0,0,1-2.06,2.21,24.44,24.44,0,0,1-3,2.42,29.5,29.5,0,0,1-3.69,2.14c-1.33.63-2.71,1.16-4.09,1.68"/><path class="cls-3" d="M245.75,173.37a10,10,0,0,1,1.54,3.12,7.48,7.48,0,0,1-.57,4.11,12.44,12.44,0,0,1-2.5,4,12.62,12.62,0,0,1-3.8,2.8,7.3,7.3,0,0,1-4,.86,9.91,9.91,0,0,1-3.23-1.31"/><path class="cls-3" d="M231.55,182.88a18.32,18.32,0,0,1,1.49-5,11.61,11.61,0,0,1,3.89-4.13,8.49,8.49,0,0,1,4.84-1.73,10.72,10.72,0,0,1,4,1.31"/><path class="cls-3" d="M233.15,186.92a7.42,7.42,0,0,1-1.19-1.75,7.81,7.81,0,0,1-.42-2.29"/><path class="cls-3" d="M308.65,106.76c-1,3.21-2.08,6.42-4,8.8-2.64,3.17-6.89,4.86-11.15,6.56"/><path class="cls-3" d="M215.14,57.51a6.75,6.75,0,0,0-.64,2.8"/><path class="cls-3" d="M252.69,60.31a6.46,6.46,0,0,0-.65-2.8"/><path class="cls-3" d="M252,57.51a20.41,20.41,0,0,0-36.9,0"/><line class="cls-2" x1="58.88" y1="61.29" x2="146.73" y2="142.96"/><line class="cls-3" x1="52.22" y1="70.12" x2="91.76" y2="106.88"/><line class="cls-3" x1="91.76" y1="106.88" x2="141.85" y2="153.46"/><line class="cls-3" x1="172.32" y1="4.4" x2="155.89" y2="10.09"/><line class="cls-3" x1="96.63" y1="30.58" x2="64.32" y2="41.75"/><line class="cls-2" x1="146.73" y1="142.96" x2="148.52" y2="144.63"/><line class="cls-3" x1="213.01" y1="10.58" x2="302.64" y2="93.93"/><line class="cls-3" x1="205.84" y1="36.62" x2="208.68" y2="45.18"/><line class="cls-3" x1="209.65" y1="52.89" x2="209.58" y2="53.63"/><line class="cls-2" x1="289.39" y1="111.81" x2="181.4" y2="149.15"/><line class="cls-3" x1="293.45" y1="122.11" x2="185.46" y2="159.45"/><path class="cls-3" d="M209.65,52.89a20.17,20.17,0,0,0-1-7.71"/><path class="cls-3" d="M185.46,159.46a72,72,0,0,1-9.36,2.16,69.88,69.88,0,0,1-10,.39"/><path class="cls-3" d="M93.56,36.62c.41-1.07.84-2.14,1.33-3.15a22.63,22.63,0,0,1,2.31-3.69,33.65,33.65,0,0,1,3.73-4.17,37.85,37.85,0,0,1,3.72-3.09,53.63,53.63,0,0,1,10.56-6,72.58,72.58,0,0,1,8.44-3,85.83,85.83,0,0,1,9.77-2.24,97.59,97.59,0,0,1,16.29-1.36q3.12,0,6.25.2c3,.19,6,.52,9,1a88.28,88.28,0,0,1,10.78,2.4A69.07,69.07,0,0,1,188,18.33a50.38,50.38,0,0,1,6.79,4.19,39.8,39.8,0,0,1,4.52,3.89,30.28,30.28,0,0,1,2.92,3.37,22.57,22.57,0,0,1,2.3,3.69c.5,1,.92,2.08,1.33,3.15"/><path class="cls-3" d="M172.59,4.34c1.78-.53,3.56-1.06,5.38-1.45a41.75,41.75,0,0,1,5.7-.76,50.5,50.5,0,0,1,7.38,0,45.82,45.82,0,0,1,4.93.63,40.41,40.41,0,0,1,6.14,1.59,36,36,0,0,1,4,1.62,26.83,26.83,0,0,1,3.32,1.85A42.9,42.9,0,0,1,213,10.58"/><path class="cls-3" d="M209.59,53.63a32.6,32.6,0,0,1-2.05,6.88A32.41,32.41,0,0,1,203.12,67l-1,1C196.89,74.31,188.4,78,180,80.53a103.46,103.46,0,0,1-30.26,4.6,103.38,103.38,0,0,1-30.27-4.6c-8.3-2.52-16.62-6.11-21.88-12.29-3.94-4.63-6.17-10.7-8.4-16.78"/><path class="cls-3" d="M166.07,162c-.78,0-1.55-.1-2.31-.17s-1.53-.15-2.3-.26a40.48,40.48,0,0,1-11.22-3,53.88,53.88,0,0,1-8.39-5.16"/><path class="cls-2" d="M181.4,149.15a62.1,62.1,0,0,1-8.77,1.82,39.94,39.94,0,0,1-9.33-.21,30.1,30.1,0,0,1-8.47-2.24,40.23,40.23,0,0,1-6.32-3.89"/><path class="cls-3" d="M206.49,46.11c-3.24,5.84-6.48,11.69-11.15,16-6.28,5.74-15.14,8.63-24,10.49a105,105,0,0,1-30,2.07,84.15,84.15,0,0,1-27.7-6.93c-7.21-3.19-14.41-7.59-17.57-14-2.43-4.91-2.46-11-2.5-17.11"/><path class="cls-3" d="M205.84,36.62a24.6,24.6,0,0,1,.94,4.73,26.35,26.35,0,0,1-.29,4.76"/><path class="cls-3" d="M172.59,4.34l-.14,0-.13,0"/><path class="cls-2" d="M300.86,100.23c-.8,2.42-1.59,4.85-3.07,6.63-2,2.41-5.19,3.67-8.4,4.94"/><path class="cls-3" d="M47.58,60.76a17.91,17.91,0,0,0,1.17,4.86,17.67,17.67,0,0,0,3.48,4.5"/><path class="cls-3" d="M47.58,60.76a26.85,26.85,0,0,1,.31-3.11,14.52,14.52,0,0,1,.66-2.34,18.18,18.18,0,0,1,1.2-2.61,21.23,21.23,0,0,1,1.71-2.5,22.52,22.52,0,0,1,2-2.2,25.6,25.6,0,0,1,3.05-2.43,26.88,26.88,0,0,1,3.68-2.13c1.33-.64,2.7-1.17,4.08-1.69"/><path class="cls-2" d="M57,49.92a13.6,13.6,0,0,0-1.18,2.27,6.58,6.58,0,0,0,.42,5.71,13.22,13.22,0,0,0,2.61,3.39"/><path class="cls-3" d="M302.64,93.93c.8.8,1.59,1.61,2.31,2.49a18,18,0,0,1,2.21,3.64,13.7,13.7,0,0,1,1,2.75,26,26,0,0,1,.5,4"/><path class="cls-3" d="M308.65,106.76c-1,3.21-2.08,6.42-4,8.8-2.64,3.17-6.89,4.86-11.15,6.56"/><path class="cls-3" d="M179.06,43.75c0,9.32-13.11,16.89-29.28,16.89s-29.29-7.57-29.29-16.89,13.11-16.9,29.29-16.9S179.06,34.42,179.06,43.75Z"/></g><g id="Calque_13" data-name="Calque 13"><path class="cls-4" d="M136.89,186.57c0,123.23-119.84,129.36-119.84,129.36"/><path class="cls-5" d="M148.54,195.75l-9.41-14a2.7,2.7,0,0,0-4.48,0l-9.41,14"/></g></g></svg>