<svg xmlns="http://www.w3.org/2000/svg" viewBox="0 0 209.55 305.72"><defs><style>.cls-1{isolation:isolate;}.cls-2,.cls-3,.cls-4,.cls-5,.cls-6,.cls-7,.cls-8,.cls-9{fill:none;}.cls-2,.cls-3,.cls-4,.cls-5,.cls-6,.cls-7{stroke:#1d1d1b;}.cls-2,.cls-3,.cls-4,.cls-5,.cls-6{stroke-miterlimit:10;}.cls-2,.cls-3,.cls-7{stroke-width:4px;}.cls-3,.cls-4,.cls-6,.cls-7,.cls-8,.cls-9{stroke-linecap:round;}.cls-4,.cls-5{stroke-width:6px;}.cls-6{stroke-width:5px;}.cls-7,.cls-8,.cls-9{stroke-linejoin:round;}.cls-8,.cls-9{stroke:#42ae5a;stroke-width:3px;}.cls-8{stroke-dasharray:3 6;}</style></defs><title>Asset 4</title><g id="Layer_2" data-name="Layer 2"><g id="Afidus_camera" data-name="Afidus camera"><g class="cls-1"><path class="cls-2" d="M139.31,91.43A32.92,32.92,0,0,1,151.25,95a35.59,35.59,0,0,1,9.81,7.58A34.14,34.14,0,0,1,167.57,113a30,30,0,0,1,2.14,11.91l-4.7,163a15.75,15.75,0,0,1-2.36,8,15.41,15.41,0,0,1-5.86,5.37,20.64,20.64,0,0,1-8.37,2.32,29.56,29.56,0,0,1-10-1.09L40.57,275.36a30.16,30.16,0,0,1-8.39-3.84,35.79,35.79,0,0,1-7.08-6.08A33.53,33.53,0,0,1,20,257.89a25.27,25.27,0,0,1-2.46-8.26L2.16,104a26.22,26.22,0,0,1,.78-10,20.44,20.44,0,0,1,4.22-7.91,18.07,18.07,0,0,1,7.1-5,20,20,0,0,1,9.36-1.21Z"/></g><path class="cls-3" d="M48.13,68.27c-12.57,4.67-21,8-33.56,12.71a17.49,17.49,0,0,1,2.09-.64,20,20,0,0,1,2.21-.4,19.81,19.81,0,0,1,2.33-.16c.79,0,1.6,0,2.42.11L139.31,91.43A32.92,32.92,0,0,1,151.25,95a35.59,35.59,0,0,1,9.81,7.58A34.14,34.14,0,0,1,167.57,113a30,30,0,0,1,2.14,11.91l-4.7,163a16.35,16.35,0,0,1-.21,2.24,15.21,15.21,0,0,1-1.2,4,14.5,14.5,0,0,1-1,1.78L197,241.71a18.06,18.06,0,0,0,.89-1.62,14.9,14.9,0,0,0,.68-1.76,12.92,12.92,0,0,0,.47-1.88,14.39,14.39,0,0,0,.24-2l8.21-141.31a24.37,24.37,0,0,0-1.54-10,26.63,26.63,0,0,0-5.3-8.6,27.86,27.86,0,0,0-8.18-6.18,27.37,27.37,0,0,0-10.13-2.79L99.18,59.2"/><path class="cls-4" d="M56,61.09l.09,4c.06,2.61,8,4.55,17.82,4.34s17.67-2.5,17.61-5.11L91.39,60"/><path class="cls-5" d="M91.39,60.31c0-2.18-8-3.77-17.8-3.56S55.92,58.91,56,61.09s8,3.78,17.81,3.56S91.44,62.5,91.39,60.31Z"/><line class="cls-6" x1="153.26" y1="70.07" x2="164.15" y2="70.84"/><path class="cls-2" d="M114.34,125.34c17.46,25,15.12,56.74-5.23,71s-51,5.53-68.45-19.44-15.12-56.74,5.22-71S96.88,100.37,114.34,125.34Z"/><path class="cls-2" d="M103.13,132.86c9.83,14.06,8.57,31.91-2.81,39.87s-28.59,3-38.42-11-8.58-31.91,2.81-39.87S93.3,118.8,103.13,132.86Z"/><path class="cls-7" d="M139.85,296.21a18.65,18.65,0,0,0,7.6-2.15,14.25,14.25,0,0,0,5.33-5,14.9,14.9,0,0,0,2.14-7.48l4.27-151.69a28.41,28.41,0,0,0-1.95-11.08,31.85,31.85,0,0,0-5.91-9.66,32.45,32.45,0,0,0-8.92-7.05,29.23,29.23,0,0,0-10.84-3.35l-29.95-3.06a72.07,72.07,0,0,1,24.31,22c19.8,28.31,16.77,64.6-6.75,81.05S60.53,205.6,40.74,177.3,24,112.7,47.49,96.25a44.22,44.22,0,0,1,9.68-5.1L26.44,88a17.89,17.89,0,0,0-8.51,1.11,16.55,16.55,0,0,0-6.45,4.67,19.35,19.35,0,0,0-3.84,7.37"/><path class="cls-2" d="M154.19,206.16c4,9.06.24,19.51-8.41,23.34s-18.92-.42-22.93-9.48-.24-19.51,8.41-23.34S150.18,197.1,154.19,206.16Z"/></g><g id="Calque_13" data-name="Calque 13"><line class="cls-8" x1="73.72" y1="1.5" x2="73.72" y2="41.44"/><path class="cls-9" d="M62.07,32.26l9.41,14a2.7,2.7,0,0,0,4.48,0l9.41-14"/></g></g></svg>