<svg xmlns="http://www.w3.org/2000/svg" viewBox="0 0 564.04 322.83"><defs><style>.cls-1{fill:#1d1d1b;}</style></defs><title>Asset 6</title><g id="Layer_2" data-name="Layer 2"><g id="Salle_ACE" data-name="Salle ACE"><path class="cls-1" d="M151.48,31.15a1,1,0,0,0-1,1v192.4a1,1,0,0,0,2,0V32.15A1,1,0,0,0,151.48,31.15Z"/><path class="cls-1" d="M562.6,92.07,403.31,85.54a1.5,1.5,0,0,0-1.56,1.5V195.71a1.5,1.5,0,0,0,.45,1.08,1.52,1.52,0,0,0,1.05.42h.05l43.3-1.48v48.82a31.53,31.53,0,0,1-31.5,31.5H77.89l-.11-23.39H233.14a34.54,34.54,0,0,0,34.5-34.5V211.7L360.71,197a1.5,1.5,0,0,0,1.27-1.48V54.19a1.5,1.5,0,0,0-1.32-1.49l-209-26a1.75,1.75,0,0,0-.51,0l-5.33,1.2a1.51,1.51,0,0,0-1.17,1.47v197.8a1.49,1.49,0,0,0,1.13,1.45l5.33,1.34a1.55,1.55,0,0,0,.37,0l.23,0,112.93-17.83v6a31.54,31.54,0,0,1-31.5,31.5H77.77l-.07-13.41a1.49,1.49,0,0,0-1.41-1.49l-31.9-1.95a1.45,1.45,0,0,0-.36,0l-42.8,7.78A1.5,1.5,0,0,0,0,242.09v72.25a1.49,1.49,0,0,0,1.26,1.48l43.13,7,.24,0h.16l32-3.49a1.5,1.5,0,0,0,1.34-1.5l-.18-38.78H415.1a34.54,34.54,0,0,0,34.5-34.5V195.63l113-3.86a1.5,1.5,0,0,0,1.45-1.5V93.57A1.51,1.51,0,0,0,562.6,92.07ZM151.55,227l-3.9-1V30.59l3.9-.88L359,55.51V194.24l-91.34,14.42v-4.44l87.64-12.09a1,1,0,0,0,.86-1v-132a1,1,0,0,0-.89-1L159.92,36.63a1,1,0,0,0-.77.25,1,1,0,0,0-.34.74V218.08a1,1,0,0,0,.35.76,1,1,0,0,0,.65.24H160l104.69-14.44v4.49ZM267.64,151.8l6.06,6.52,1.65-1.54-9.2-9.89-9.21,9.89,1.65,1.54,6.05-6.51v50.81L160.81,216.94V38.74L354.14,60.07v130.2l-86.5,11.93Zm-223,168L3,313.07V243.34l41.39-7.53,30.32,1.86.19,39.5a1.21,1.21,0,0,0-.06.38,1.76,1.76,0,0,0,.06.4l.18,38.54ZM561,188.82,449.6,192.63V169.26l6.06,6.52,1.64-1.54-9.2-9.89-9.2,9.89,1.65,1.54,6.05-6.51v23.46l-41.85,1.43V88.61L561,95Z"/><path class="cls-1" d="M473.89,304.21v-107a1,1,0,0,0-2,0v107a1,1,0,0,0,2,0Z"/><path class="cls-1" d="M540.07,299.23l-16.43-6.08a1.53,1.53,0,0,0-.7-.08l-28.55,3.45V196.46a1.5,1.5,0,0,0-3,0V301.54a1.5,1.5,0,1,0,3,0v-2l28.55-3.45,10.13,3.75-96.63,10.61-10.08-3.73,40.57-4.26a1.5,1.5,0,0,0,2.88-.57V198.21a1.5,1.5,0,1,0-3,0V299.46l-47.15,5a1.5,1.5,0,0,0-.36,2.9l16.43,6.07a1.6,1.6,0,0,0,.52.1h.17l103.3-11.35a1.49,1.49,0,0,0,.35-2.89Z"/><path class="cls-1" d="M44.4,237h0a1,1,0,0,0-1,1l.13,79.73a1,1,0,0,0,1,1h0a1,1,0,0,0,1-1L45.4,238A1,1,0,0,0,44.4,237Z"/><path class="cls-1" d="M69.26,265.05c-1.54,0-2.76,1.47-2.76,3.34s1.22,3.33,2.76,3.33S72,270.26,72,268.39,70.81,265.05,69.26,265.05Zm0,4.67c-.35,0-.76-.58-.76-1.33s.41-1.34.76-1.34.77.59.77,1.34S69.62,269.72,69.26,269.72Z"/><path class="cls-1" d="M70.78,244a1,1,0,0,0,0-2L51,241.08a1,1,0,0,0-1,.95,1,1,0,0,0,.95,1l19.8.9Z"/><path class="cls-1" d="M222.15,125a16,16,0,0,0-1.58-.68c-.63-.23-1.09-.41-1.39-.55a2,2,0,0,1-.67-.49,1,1,0,0,1-.23-.68,1.07,1.07,0,0,1,.43-.91,1.92,1.92,0,0,1,1.2-.33,2.27,2.27,0,0,1,1.49.46,1.39,1.39,0,0,1,.54,1.11v.16a.15.15,0,0,0,.17.16h1.26a.15.15,0,0,0,.11,0,.16.16,0,0,0,.05-.12v-.24a2.61,2.61,0,0,0-.45-1.51,2.88,2.88,0,0,0-1.25-1A4.46,4.46,0,0,0,220,120a3.73,3.73,0,0,0-2.4.72,2.35,2.35,0,0,0-.89,1.94,2.24,2.24,0,0,0,.41,1.38,3.12,3.12,0,0,0,1,.88,14.48,14.48,0,0,0,1.61.68c.59.23,1,.42,1.32.56a2.22,2.22,0,0,1,.68.5,1,1,0,0,1,.24.67,1.16,1.16,0,0,1-.44.93,1.88,1.88,0,0,1-1.28.37,2.53,2.53,0,0,1-1.57-.43,1.28,1.28,0,0,1-.57-1.07v-.27a.16.16,0,0,0-.05-.11.16.16,0,0,0-.12,0H216.7a.15.15,0,0,0-.12,0,.16.16,0,0,0-.05.11v.35a2.57,2.57,0,0,0,.44,1.49,2.91,2.91,0,0,0,1.26,1,4.81,4.81,0,0,0,1.9.35,4,4,0,0,0,2.54-.74,2.45,2.45,0,0,0,.93-2,2.17,2.17,0,0,0-.42-1.37A3.17,3.17,0,0,0,222.15,125Z"/><path class="cls-1" d="M230.43,120.41a4.26,4.26,0,0,0-3.73,0,3.16,3.16,0,0,0-1.25,1.21,3.46,3.46,0,0,0-.45,1.78v3.19a3.67,3.67,0,0,0,.44,1.81,3.06,3.06,0,0,0,1.26,1.21,4.26,4.26,0,0,0,3.73,0,3.1,3.1,0,0,0,1.25-1.21,3.57,3.57,0,0,0,.45-1.81V123.4a3.46,3.46,0,0,0-.45-1.78A3.16,3.16,0,0,0,230.43,120.41Zm.07,6.24a1.94,1.94,0,0,1-.53,1.44,2.07,2.07,0,0,1-2.81,0,1.94,1.94,0,0,1-.53-1.44v-3.26a2,2,0,0,1,.53-1.46,2.07,2.07,0,0,1,2.81,0,2,2,0,0,1,.53,1.46Z"/><path class="cls-1" d="M238.93,125.63a.06.06,0,0,1,0-.06s0,0,0,0a2.53,2.53,0,0,0,1.38-.94,2.74,2.74,0,0,0,.5-1.65,3,3,0,0,0-.36-1.49,2.63,2.63,0,0,0-1-1,3.18,3.18,0,0,0-1.51-.35H234.1a.16.16,0,0,0-.12.05.16.16,0,0,0,0,.11v9.47a.18.18,0,0,0,0,.12.21.21,0,0,0,.12.05h1.29a.17.17,0,0,0,.12-.05.18.18,0,0,0,.05-.12v-4a.06.06,0,0,1,.07-.07h1.68s.06,0,.08.06l1.85,4a.21.21,0,0,0,.2.13h1.34q.15,0,.15-.12l0-.08Zm-1.2-1.21h-2.1s-.07,0-.07-.07v-2.78s0-.07.07-.07h2.1a1.46,1.46,0,0,1,1.08.4,1.42,1.42,0,0,1,.42,1.07,1.36,1.36,0,0,1-.42,1A1.46,1.46,0,0,1,237.73,124.42Z"/><path class="cls-1" d="M248.94,120.1h-6.82a.17.17,0,0,0-.16.16v1.08a.13.13,0,0,0,0,.12.16.16,0,0,0,.11.05h2.48c.05,0,.07,0,.07.07v8.15a.18.18,0,0,0,.05.12.17.17,0,0,0,.12.05h1.29a.21.21,0,0,0,.12-.05.18.18,0,0,0,.05-.12v-8.15s0-.07.07-.07h2.57a.17.17,0,0,0,.17-.17v-1.08a.16.16,0,0,0-.05-.11A.13.13,0,0,0,248.94,120.1Z"/><path class="cls-1" d="M252.06,120.1h-1.28a.13.13,0,0,0-.12.05.13.13,0,0,0,0,.11v9.47a.15.15,0,0,0,0,.12.17.17,0,0,0,.12.05h1.28a.17.17,0,0,0,.12-.05.15.15,0,0,0,0-.12v-9.47a.13.13,0,0,0,0-.11A.13.13,0,0,0,252.06,120.1Z"/><path class="cls-1" d="M260.74,120.1h-6.3a.17.17,0,0,0-.16.16v9.47a.15.15,0,0,0,.05.12.16.16,0,0,0,.11.05h6.3a.17.17,0,0,0,.12-.05.15.15,0,0,0,.05-.12v-1.07a.13.13,0,0,0-.05-.11.13.13,0,0,0-.12-.05H256a.06.06,0,0,1-.07-.07v-2.71a.06.06,0,0,1,.07-.07h3.21a.15.15,0,0,0,.11,0,.16.16,0,0,0,0-.12v-1.07a.16.16,0,0,0,0-.12.16.16,0,0,0-.11,0H256c-.05,0-.07,0-.07-.07v-2.61s0-.07.07-.07h4.77a.17.17,0,0,0,.12,0,.13.13,0,0,0,.05-.12v-1.07a.13.13,0,0,0-.05-.11A.13.13,0,0,0,260.74,120.1Z"/><path class="cls-1" d="M269.06,126a.11.11,0,0,1,0-.08l1.48-2.18c0-.06,0-.11,0-.15s-.06-.06-.13-.06h-1.19a.2.2,0,0,0-.19.11l-1.47,2.21a.16.16,0,0,0-.05.11.21.21,0,0,0,.05.11l1.47,2.22a.21.21,0,0,0,.19.11h1.19c.1,0,.14,0,.14-.11a.22.22,0,0,0,0-.1Z"/><path class="cls-1" d="M266.71,126a.11.11,0,0,1,0-.08l1.5-2.18a.17.17,0,0,0,0-.15.16.16,0,0,0-.14-.06H266.9a.2.2,0,0,0-.19.11l-1.47,2.21a.15.15,0,0,0,0,.11.19.19,0,0,0,0,.11l1.47,2.22a.21.21,0,0,0,.19.11h1.19c.1,0,.14,0,.14-.11a.44.44,0,0,0,0-.1Z"/><path class="cls-1" d="M280.93,120.45a3.12,3.12,0,0,0-1.55-.37h-3.85a.17.17,0,0,0-.17.17v9.48a.18.18,0,0,0,.05.12.17.17,0,0,0,.12.05h1.29a.16.16,0,0,0,.11-.05.15.15,0,0,0,.05-.12V126a.07.07,0,0,1,.07-.07h2.24a3.6,3.6,0,0,0,1.61-.35,2.57,2.57,0,0,0,1.07-1,3,3,0,0,0,.38-1.51,3,3,0,0,0-.38-1.53A2.46,2.46,0,0,0,280.93,120.45Zm-.64,3.71a1.58,1.58,0,0,1-1.15.42h-2.09a.07.07,0,0,1-.07-.07v-3a.07.07,0,0,1,.07-.07h2.09a1.55,1.55,0,0,1,1.15.44,1.51,1.51,0,0,1,.43,1.13A1.47,1.47,0,0,1,280.29,124.16Z"/><path class="cls-1" d="M285.68,121.89a1.86,1.86,0,0,1,1.37-.51,1.83,1.83,0,0,1,1.36.51,1.75,1.75,0,0,1,.52,1.33c0,.1.05.15.16.15l1.29-.07a.13.13,0,0,0,.12,0,.17.17,0,0,0,.05-.12,3.12,3.12,0,0,0-.43-1.65,2.89,2.89,0,0,0-1.24-1.1,4.11,4.11,0,0,0-1.83-.4,4,4,0,0,0-1.85.41,2.91,2.91,0,0,0-1.23,1.15,3.33,3.33,0,0,0-.43,1.72v3.46a3.33,3.33,0,0,0,.43,1.72,3,3,0,0,0,1.23,1.16,4,4,0,0,0,1.85.41,4.1,4.1,0,0,0,1.83-.39,2.87,2.87,0,0,0,1.24-1.12,3.17,3.17,0,0,0,.43-1.67.14.14,0,0,0-.05-.1.16.16,0,0,0-.12,0l-1.29-.06a.14.14,0,0,0-.16.16,1.73,1.73,0,0,1-.52,1.32,2.1,2.1,0,0,1-2.73,0,1.72,1.72,0,0,1-.52-1.31v-3.57A1.75,1.75,0,0,1,285.68,121.89Z"/><path class="cls-1" d="M299.05,123.64a.21.21,0,0,0-.2-.11h-1.17c-.1,0-.14,0-.14.11a.2.2,0,0,0,0,.1l1.49,2.18a.06.06,0,0,1,0,.08l-1.49,2.19a.16.16,0,0,0,0,.15.16.16,0,0,0,.14.06h1.17a.23.23,0,0,0,.2-.11l1.47-2.22a.19.19,0,0,0,0-.11.15.15,0,0,0,0-.11Z"/><path class="cls-1" d="M298.22,126a.15.15,0,0,0,0-.11l-1.47-2.21a.21.21,0,0,0-.2-.11h-1.17c-.1,0-.14,0-.14.11a.22.22,0,0,0,0,.1l1.48,2.18a.06.06,0,0,1,0,.08l-1.48,2.19a.14.14,0,0,0,0,.15.16.16,0,0,0,.14.06h1.17a.23.23,0,0,0,.2-.11l1.47-2.22A.19.19,0,0,0,298.22,126Z"/><path class="cls-1" d="M6.2,222H7.49a.17.17,0,0,0,.17-.17v-3.76c0-.05,0-.07.07-.07H10a3.4,3.4,0,0,0,1.6-.36,2.61,2.61,0,0,0,1.07-1,3.29,3.29,0,0,0,0-3.05,2.64,2.64,0,0,0-1-1,3.27,3.27,0,0,0-1.56-.36H6.2a.15.15,0,0,0-.16.17v9.47a.16.16,0,0,0,0,.12A.21.21,0,0,0,6.2,222Zm1.46-8.34c0-.05,0-.07.07-.07H9.81a1.49,1.49,0,0,1,1.59,1.57,1.47,1.47,0,0,1-.44,1.1,1.58,1.58,0,0,1-1.15.42H7.73c-.05,0-.07,0-.07-.07Z"/><path class="cls-1" d="M15.88,221.72a3.87,3.87,0,0,0,1.84.41,4.15,4.15,0,0,0,1.84-.39,2.88,2.88,0,0,0,1.23-1.11,3.18,3.18,0,0,0,.43-1.68.12.12,0,0,0,0-.09.19.19,0,0,0-.12,0l-1.29-.06c-.11,0-.17.05-.17.15a1.78,1.78,0,0,1-.51,1.33,1.89,1.89,0,0,1-1.37.49,1.88,1.88,0,0,1-1.37-.5,1.79,1.79,0,0,1-.52-1.32v-3.57a1.8,1.8,0,0,1,.52-1.33,1.92,1.92,0,0,1,1.37-.5,1.89,1.89,0,0,1,1.37.5,1.79,1.79,0,0,1,.51,1.33c0,.11.06.16.17.16l1.29-.07a.21.21,0,0,0,.12-.05.16.16,0,0,0,0-.12,3.08,3.08,0,0,0-.43-1.65,2.88,2.88,0,0,0-1.23-1.11,4.15,4.15,0,0,0-1.84-.39,4,4,0,0,0-1.84.41,2.92,2.92,0,0,0-1.24,1.14,3.47,3.47,0,0,0-.43,1.73v3.45a3.47,3.47,0,0,0,.43,1.73A2.94,2.94,0,0,0,15.88,221.72Z"/><path class="cls-1" d="M25.84,222h1.29a.17.17,0,0,0,.17-.17v-3.76c0-.05,0-.07.07-.07h2.24a3.4,3.4,0,0,0,1.6-.36,2.61,2.61,0,0,0,1.07-1,2.93,2.93,0,0,0,.38-1.52,3,3,0,0,0-.37-1.53,2.58,2.58,0,0,0-1-1,3.27,3.27,0,0,0-1.56-.36H25.84a.13.13,0,0,0-.11,0,.13.13,0,0,0-.05.12v9.47a.13.13,0,0,0,.05.12A.16.16,0,0,0,25.84,222Zm1.46-8.34c0-.05,0-.07.07-.07h2.09A1.49,1.49,0,0,1,31,215.18a1.47,1.47,0,0,1-.44,1.1,1.57,1.57,0,0,1-1.14.42H27.37c-.05,0-.07,0-.07-.07Z"/><path class="cls-1" d="M35.55,221.73a4.26,4.26,0,0,0,3.73,0,3,3,0,0,0,1.25-1.21,3.54,3.54,0,0,0,.45-1.8v-3.19a3.5,3.5,0,0,0-.45-1.79,3.07,3.07,0,0,0-1.25-1.2,4.26,4.26,0,0,0-3.73,0,3.07,3.07,0,0,0-1.25,1.2,3.5,3.5,0,0,0-.45,1.79v3.19a3.64,3.64,0,0,0,.44,1.8A2.94,2.94,0,0,0,35.55,221.73Zm-.07-6.22a2,2,0,0,1,.53-1.45,2.07,2.07,0,0,1,2.81,0,2,2,0,0,1,.53,1.45v3.26a2,2,0,0,1-.53,1.45,2.1,2.1,0,0,1-2.81,0,2,2,0,0,1-.53-1.45Z"/><path class="cls-1" d="M43,222h3.42a4.05,4.05,0,0,0,1.75-.35,2.73,2.73,0,0,0,1.17-1,2.81,2.81,0,0,0,.41-1.52v-4.06a2.83,2.83,0,0,0-.41-1.52,2.73,2.73,0,0,0-1.17-1,4.2,4.2,0,0,0-1.75-.35H43a.21.21,0,0,0-.12.05.17.17,0,0,0,0,.12v9.46a.17.17,0,0,0,0,.12A.21.21,0,0,0,43,222Zm1.46-8.33c0-.05,0-.07.07-.07h1.94a1.6,1.6,0,0,1,1.21.47,1.76,1.76,0,0,1,.45,1.27v3.54a1.82,1.82,0,0,1-.46,1.25,1.55,1.55,0,0,1-1.18.47h-2s-.07,0-.07-.07Z"/><path class="cls-1" d="M51.6,222h1.29a.17.17,0,0,0,.17-.17v-9.46a.17.17,0,0,0-.17-.17H51.6a.16.16,0,0,0-.11.05.13.13,0,0,0-.05.12v9.46a.13.13,0,0,0,.05.12A.16.16,0,0,0,51.6,222Z"/><path class="cls-1" d="M56.7,221.73a4,4,0,0,0,1.83.4,4,4,0,0,0,1.85-.4,2.93,2.93,0,0,0,1.23-1.16,3.37,3.37,0,0,0,.44-1.73v-6.45a.17.17,0,0,0-.17-.17H60.59a.18.18,0,0,0-.12.05.17.17,0,0,0,0,.12v6.48a1.86,1.86,0,0,1-.51,1.35,1.9,1.9,0,0,1-1.38.51,1.77,1.77,0,0,1-1.89-1.86v-6.48a.13.13,0,0,0,0-.12.16.16,0,0,0-.11-.05H55.19a.17.17,0,0,0-.17.17v6.45a3.37,3.37,0,0,0,.44,1.73A3,3,0,0,0,56.7,221.73Z"/><path class="cls-1" d="M64.18,222h1.28a.17.17,0,0,0,.12-.05.13.13,0,0,0,0-.12v-6.66a.05.05,0,0,1,0-.06s0,0,0,0l1.76,2.68a.23.23,0,0,0,.2.11h.64a.24.24,0,0,0,.2-.11l1.75-2.69s0,0,0,0a.05.05,0,0,1,0,.06v6.67a.17.17,0,0,0,.17.17h1.29a.16.16,0,0,0,.11-.05.13.13,0,0,0,0-.12v-9.46a.13.13,0,0,0,0-.12.16.16,0,0,0-.11-.05H70.52a.23.23,0,0,0-.2.11L68,215.79s0,0,0,0a.09.09,0,0,1-.06,0l-2.28-3.46a.23.23,0,0,0-.2-.11H64.18a.17.17,0,0,0-.12.05.13.13,0,0,0,0,.12v9.46a.13.13,0,0,0,0,.12A.17.17,0,0,0,64.18,222Z"/><path class="cls-1" d="M193.72,9.91H195a.13.13,0,0,0,.12-.05.17.17,0,0,0,.05-.12V3.08a.06.06,0,0,1,0-.06s0,0,0,0L197,5.73a.21.21,0,0,0,.19.11h.65a.21.21,0,0,0,.19-.11L199.81,3s0,0,.05,0a.05.05,0,0,1,0,.06V9.74a.17.17,0,0,0,.17.17h1.28a.13.13,0,0,0,.12-.05.17.17,0,0,0,.05-.12V.28a.17.17,0,0,0-.05-.12.17.17,0,0,0-.12,0h-1.28a.23.23,0,0,0-.2.11l-2.28,3.46a.05.05,0,0,1-.05,0l0,0L195.21.22a.24.24,0,0,0-.2-.11h-1.29a.21.21,0,0,0-.12.05.16.16,0,0,0,0,.12V9.74a.15.15,0,0,0,.16.17Z"/><path class="cls-1" d="M205,9.63a4.35,4.35,0,0,0,3.73,0A3,3,0,0,0,210,8.41a3.54,3.54,0,0,0,.45-1.8V3.42A3.5,3.5,0,0,0,210,1.63a3,3,0,0,0-1.25-1.2A3.88,3.88,0,0,0,206.88,0,3.8,3.8,0,0,0,205,.43a3,3,0,0,0-1.25,1.2,3.5,3.5,0,0,0-.45,1.79V6.61a3.53,3.53,0,0,0,.44,1.8A3,3,0,0,0,205,9.63ZM205,3.4A2,2,0,0,1,205.48,2a1.85,1.85,0,0,1,1.4-.55A1.88,1.88,0,0,1,208.3,2a2,2,0,0,1,.53,1.45V6.66a2,2,0,0,1-.53,1.45,1.91,1.91,0,0,1-1.42.54,1.88,1.88,0,0,1-1.4-.54A2,2,0,0,1,205,6.66Z"/><path class="cls-1" d="M212.43,9.91h1.28a.17.17,0,0,0,.17-.17l0-6.52s0-.06,0-.06,0,0,.06,0l4,6.61a.19.19,0,0,0,.2.11h1.24a.13.13,0,0,0,.12-.05.17.17,0,0,0,.05-.12V.28a.17.17,0,0,0-.05-.12.17.17,0,0,0-.12,0h-1.29a.21.21,0,0,0-.12.05.16.16,0,0,0,0,.12V6.8s0,.06,0,.07,0,0-.05,0l-4-6.61a.21.21,0,0,0-.2-.11h-1.24a.17.17,0,0,0-.12.05.13.13,0,0,0-.05.12V9.74a.17.17,0,0,0,.17.17Z"/><path class="cls-1" d="M221.79,9.91h1.29a.13.13,0,0,0,.12-.05.17.17,0,0,0,.05-.12V.28a.17.17,0,0,0-.05-.12.17.17,0,0,0-.12,0h-1.29a.21.21,0,0,0-.12.05.17.17,0,0,0,0,.12V9.74a.17.17,0,0,0,0,.12A.16.16,0,0,0,221.79,9.91Z"/><path class="cls-1" d="M224.91,1.53h2.48c.05,0,.07,0,.07.07V9.74a.17.17,0,0,0,0,.12.13.13,0,0,0,.12.05h1.29a.16.16,0,0,0,.12-.05.17.17,0,0,0,.05-.12V1.6c0-.05,0-.07.07-.07h2.57a.17.17,0,0,0,.12-.05.18.18,0,0,0,.05-.12V.28a.17.17,0,0,0-.05-.12.17.17,0,0,0-.12,0h-6.82a.16.16,0,0,0-.11.05.13.13,0,0,0-.05.12V1.36a.15.15,0,0,0,.05.12A.16.16,0,0,0,224.91,1.53Z"/><path class="cls-1" d="M233.57,9.91h6.3a.15.15,0,0,0,.16-.17V8.68a.16.16,0,0,0,0-.12.21.21,0,0,0-.12-.05h-4.78c-.05,0-.07,0-.07-.07V5.74s0-.07.07-.07h3.21a.21.21,0,0,0,.12,0,.17.17,0,0,0,.05-.12V4.44a.17.17,0,0,0-.05-.12.21.21,0,0,0-.12-.05h-3.21c-.05,0-.07,0-.07-.07V1.58a.06.06,0,0,1,.07-.07h4.78a.15.15,0,0,0,.16-.17V.28a.16.16,0,0,0,0-.12.21.21,0,0,0-.12,0h-6.3a.17.17,0,0,0-.12.05.13.13,0,0,0,0,.12V9.74a.17.17,0,0,0,.17.17Z"/><path class="cls-1" d="M243.28,9.62a4.43,4.43,0,0,0,3.68,0,2.9,2.9,0,0,0,1.24-1.16,3.37,3.37,0,0,0,.43-1.73V.28a.17.17,0,0,0,0-.12.17.17,0,0,0-.12,0h-1.29a.21.21,0,0,0-.12.05.16.16,0,0,0,0,.12V6.76a1.86,1.86,0,0,1-.52,1.35,1.87,1.87,0,0,1-1.37.51,1.9,1.9,0,0,1-1.38-.51,1.86,1.86,0,0,1-.51-1.35V.28a.17.17,0,0,0,0-.12.21.21,0,0,0-.12,0h-1.29a.17.17,0,0,0-.12.05.17.17,0,0,0-.05.12V6.73A3.37,3.37,0,0,0,242,8.46,3,3,0,0,0,243.28,9.62Z"/><path class="cls-1" d="M250.76,9.91h1.29a.13.13,0,0,0,.11-.05.13.13,0,0,0,.05-.12v-4a.06.06,0,0,1,.07-.07H254a.11.11,0,0,1,.09,0l1.85,4a.19.19,0,0,0,.19.12h1.35c.1,0,.15,0,.15-.11a.16.16,0,0,0,0-.08l-2-4.08a0,0,0,0,1,0,0s0,0,0,0A2.54,2.54,0,0,0,257,4.61a2.71,2.71,0,0,0,.5-1.64,3,3,0,0,0-.37-1.49,2.48,2.48,0,0,0-1-1,3.09,3.09,0,0,0-1.51-.36h-3.85a.17.17,0,0,0-.12.05.17.17,0,0,0,0,.12V9.74a.17.17,0,0,0,0,.12A.13.13,0,0,0,250.76,9.91Zm1.45-8.33a.07.07,0,0,1,.07-.07h2.1a1.5,1.5,0,0,1,1.09.41A1.43,1.43,0,0,1,255.88,3,1.43,1.43,0,0,1,255.47,4a1.54,1.54,0,0,1-1.09.4h-2.1a.06.06,0,0,1-.07-.07Z"/><path class="cls-1" d="M263.4,9.61a3.91,3.91,0,0,0,1.85.41,4.1,4.1,0,0,0,1.83-.39,2.88,2.88,0,0,0,1.23-1.11,3.18,3.18,0,0,0,.44-1.67.14.14,0,0,0-.05-.1.16.16,0,0,0-.12,0l-1.29-.06c-.11,0-.17,0-.17.15a1.78,1.78,0,0,1-.51,1.33,2.13,2.13,0,0,1-2.73,0,1.74,1.74,0,0,1-.52-1.32V3.23a1.76,1.76,0,0,1,.52-1.33,1.89,1.89,0,0,1,1.37-.5,1.87,1.87,0,0,1,1.36.5,1.79,1.79,0,0,1,.51,1.33c0,.11.06.16.17.16l1.29-.07a.17.17,0,0,0,.17-.17,3.11,3.11,0,0,0-.44-1.65A2.88,2.88,0,0,0,267.08.39,4.1,4.1,0,0,0,265.25,0a4,4,0,0,0-1.85.41,3,3,0,0,0-1.23,1.14,3.37,3.37,0,0,0-.44,1.73V6.73a3.37,3.37,0,0,0,.44,1.73A3,3,0,0,0,263.4,9.61Z"/><path class="cls-1" d="M270.65,9.91H277a.13.13,0,0,0,.12-.05.17.17,0,0,0,.05-.12V8.68a.17.17,0,0,0-.17-.17h-4.77c-.05,0-.07,0-.07-.07V5.74s0-.07.07-.07h3.2a.17.17,0,0,0,.12,0,.13.13,0,0,0,.05-.12V4.44a.13.13,0,0,0-.05-.12.17.17,0,0,0-.12-.05h-3.2c-.05,0-.07,0-.07-.07V1.58a.06.06,0,0,1,.07-.07H277a.13.13,0,0,0,.12-.05.17.17,0,0,0,.05-.12V.28a.17.17,0,0,0-.05-.12.17.17,0,0,0-.12,0h-6.3a.21.21,0,0,0-.12.05.17.17,0,0,0,0,.12V9.74a.17.17,0,0,0,0,.12A.16.16,0,0,0,270.65,9.91Z"/><path class="cls-1" d="M278.94,9.91h1.29a.16.16,0,0,0,.12-.05.17.17,0,0,0,0-.12l0-6.52s0-.06,0-.06,0,0,.05,0l4,6.61a.2.2,0,0,0,.2.11h1.25a.13.13,0,0,0,.11-.05.13.13,0,0,0,0-.12V.28a.13.13,0,0,0,0-.12.16.16,0,0,0-.11,0h-1.29a.17.17,0,0,0-.12.05.17.17,0,0,0,0,.12V6.8a.1.1,0,0,1,0,.07.07.07,0,0,1-.06,0l-4-6.61a.2.2,0,0,0-.19-.11h-1.25a.17.17,0,0,0-.12.05.17.17,0,0,0-.05.12V9.74a.17.17,0,0,0,.05.12A.13.13,0,0,0,278.94,9.91Z"/><path class="cls-1" d="M287.76,1.53h2.48c.05,0,.07,0,.07.07V9.74a.17.17,0,0,0,.17.17h1.28a.17.17,0,0,0,.17-.17V1.6c0-.05,0-.07.07-.07h2.58a.21.21,0,0,0,.12-.05.18.18,0,0,0,.05-.12V.28a.17.17,0,0,0-.05-.12.21.21,0,0,0-.12,0h-6.82a.17.17,0,0,0-.12.05.17.17,0,0,0-.05.12V1.36a.18.18,0,0,0,.05.12A.17.17,0,0,0,287.76,1.53Z"/><path class="cls-1" d="M296.41,9.91h1.29a.13.13,0,0,0,.12-.05.17.17,0,0,0,.05-.12v-4s0-.07.07-.07h1.68a.09.09,0,0,1,.08,0l1.85,4a.2.2,0,0,0,.2.12h1.34c.1,0,.15,0,.15-.11a.31.31,0,0,0,0-.08l-2-4.08a0,0,0,0,1,0,0s0,0,0,0a2.54,2.54,0,0,0,1.38-.95,2.71,2.71,0,0,0,.5-1.64,3,3,0,0,0-.36-1.49,2.57,2.57,0,0,0-1-1,3.09,3.09,0,0,0-1.51-.36h-3.85a.21.21,0,0,0-.12.05.17.17,0,0,0-.05.12V9.74a.17.17,0,0,0,.05.12A.16.16,0,0,0,296.41,9.91Zm1.46-8.33a.06.06,0,0,1,.07-.07H300a1.46,1.46,0,0,1,1.08.41A1.4,1.4,0,0,1,301.54,3,1.4,1.4,0,0,1,301.12,4a1.5,1.5,0,0,1-1.08.4h-2.1c-.05,0-.07,0-.07-.07Z"/><path class="cls-1" d="M305,9.91h6.3a.17.17,0,0,0,.17-.17V8.68a.13.13,0,0,0,0-.12.17.17,0,0,0-.12-.05h-4.77s-.07,0-.07-.07V5.74s0-.07.07-.07h3.21a.16.16,0,0,0,.11,0,.13.13,0,0,0,.05-.12V4.44a.13.13,0,0,0-.05-.12.16.16,0,0,0-.11-.05h-3.21s-.07,0-.07-.07V1.58a.06.06,0,0,1,.07-.07h4.77a.13.13,0,0,0,.12-.05.13.13,0,0,0,0-.12V.28a.13.13,0,0,0,0-.12.17.17,0,0,0-.12,0H305a.21.21,0,0,0-.12.05.16.16,0,0,0,0,.12V9.74a.15.15,0,0,0,.16.17Z"/><path class="cls-1" d="M430.44,76.64h1.29a.13.13,0,0,0,.12,0,.17.17,0,0,0,0-.12V69.81a.06.06,0,0,1,0-.06s0,0,.05,0l1.77,2.68a.21.21,0,0,0,.19.11h.65a.21.21,0,0,0,.19-.11l1.75-2.69s0,0,.05,0a.07.07,0,0,1,0,.06v6.67a.15.15,0,0,0,.16.17h1.29a.13.13,0,0,0,.12,0,.17.17,0,0,0,.05-.12V67a.17.17,0,0,0-.17-.17h-1.29a.21.21,0,0,0-.19.11l-2.28,3.46a.05.05,0,0,1-.05,0l-.05,0L431.93,67a.24.24,0,0,0-.2-.11h-1.29a.21.21,0,0,0-.12,0,.17.17,0,0,0-.05.12v9.46a.17.17,0,0,0,.05.12A.16.16,0,0,0,430.44,76.64Z"/><path class="cls-1" d="M441.74,76.35a4.26,4.26,0,0,0,3.73,0,3,3,0,0,0,1.25-1.21,3.54,3.54,0,0,0,.45-1.8V70.15a3.5,3.5,0,0,0-.45-1.79,3,3,0,0,0-1.25-1.2,3.88,3.88,0,0,0-1.87-.43,3.8,3.8,0,0,0-1.85.43,3,3,0,0,0-1.26,1.2,3.6,3.6,0,0,0-.44,1.79v3.19a3.53,3.53,0,0,0,.44,1.8A2.92,2.92,0,0,0,441.74,76.35Zm-.07-6.22a2,2,0,0,1,.53-1.45,1.85,1.85,0,0,1,1.4-.55,1.88,1.88,0,0,1,1.42.55,2,2,0,0,1,.53,1.45v3.26a2,2,0,0,1-.53,1.45,1.91,1.91,0,0,1-1.42.54,1.88,1.88,0,0,1-1.4-.54,2,2,0,0,1-.53-1.45Z"/><path class="cls-1" d="M449.15,76.64h1.28a.13.13,0,0,0,.12,0,.17.17,0,0,0,.05-.12l0-6.52s0-.06,0-.06,0,0,.06,0l4,6.61a.2.2,0,0,0,.19.11h1.25a.13.13,0,0,0,.12,0,.17.17,0,0,0,.05-.12V67a.17.17,0,0,0-.17-.17h-1.29a.21.21,0,0,0-.12,0,.17.17,0,0,0-.05.12l0,6.52s0,.06,0,.07a.05.05,0,0,1-.05,0l-4-6.61a.22.22,0,0,0-.2-.11h-1.24a.17.17,0,0,0-.12,0,.13.13,0,0,0,0,.12v9.46a.17.17,0,0,0,.17.17Z"/><path class="cls-1" d="M458.51,76.64h1.29a.13.13,0,0,0,.12,0,.17.17,0,0,0,.05-.12V67a.17.17,0,0,0-.17-.17h-1.29a.17.17,0,0,0-.17.17v9.46a.17.17,0,0,0,.05.12A.13.13,0,0,0,458.51,76.64Z"/><path class="cls-1" d="M461.63,68.26h2.48c.05,0,.07,0,.07.07v8.14a.17.17,0,0,0,.05.12.13.13,0,0,0,.12,0h1.29a.16.16,0,0,0,.12,0,.17.17,0,0,0,.05-.12V68.33s0-.07.06-.07h2.58a.17.17,0,0,0,.12-.05.18.18,0,0,0,.05-.12V67a.17.17,0,0,0-.17-.17h-6.82a.21.21,0,0,0-.12,0,.17.17,0,0,0-.05.12v1.08a.18.18,0,0,0,.05.12A.21.21,0,0,0,461.63,68.26Z"/><path class="cls-1" d="M470.29,76.64h6.29a.17.17,0,0,0,.17-.17V75.41a.13.13,0,0,0-.05-.12.17.17,0,0,0-.12-.05h-4.77c-.05,0-.07,0-.07-.07v-2.7s0-.07.07-.07H475a.21.21,0,0,0,.12-.05.16.16,0,0,0,0-.12V71.17a.16.16,0,0,0,0-.12.21.21,0,0,0-.12,0h-3.21c-.05,0-.07,0-.07-.07V68.31s0-.07.07-.07h4.77a.17.17,0,0,0,.17-.17V67a.13.13,0,0,0-.05-.12.17.17,0,0,0-.12,0h-6.29a.17.17,0,0,0-.12,0,.13.13,0,0,0-.05.12v9.46a.17.17,0,0,0,.17.17Z"/><path class="cls-1" d="M480,76.35a4.43,4.43,0,0,0,3.68,0,2.93,2.93,0,0,0,1.23-1.16,3.37,3.37,0,0,0,.44-1.73V67a.17.17,0,0,0-.17-.17h-1.29a.21.21,0,0,0-.12,0,.17.17,0,0,0,0,.12v6.48a1.86,1.86,0,0,1-.51,1.35,2.11,2.11,0,0,1-2.75,0,1.86,1.86,0,0,1-.52-1.35V67a.16.16,0,0,0,0-.12.21.21,0,0,0-.12,0h-1.29a.17.17,0,0,0-.17.17v6.45a3.37,3.37,0,0,0,.44,1.73A3,3,0,0,0,480,76.35Z"/><path class="cls-1" d="M487.48,76.64h1.28a.17.17,0,0,0,.17-.17v-4a.06.06,0,0,1,.07-.07h1.68a.11.11,0,0,1,.09,0l1.85,4a.19.19,0,0,0,.19.12h1.35c.1,0,.15,0,.15-.11a.16.16,0,0,0,0-.08l-2-4.08a0,0,0,0,1,0-.05s0,0,0,0a2.54,2.54,0,0,0,1.38-1,2.71,2.71,0,0,0,.5-1.64,3,3,0,0,0-.37-1.49,2.48,2.48,0,0,0-1-1,3.09,3.09,0,0,0-1.51-.36h-3.85a.17.17,0,0,0-.17.17v9.46a.17.17,0,0,0,.05.12A.13.13,0,0,0,487.48,76.64Zm1.45-8.33a.06.06,0,0,1,.07-.07h2.1a1.5,1.5,0,0,1,1.09.41,1.58,1.58,0,0,1,0,2.12,1.54,1.54,0,0,1-1.09.4H489a.06.06,0,0,1-.07-.07Z"/><path class="cls-1" d="M498.86,76.64h3.42a4.05,4.05,0,0,0,1.75-.35,2.59,2.59,0,0,0,1.16-1,2.73,2.73,0,0,0,.42-1.52V69.71a2.75,2.75,0,0,0-.42-1.52,2.65,2.65,0,0,0-1.16-1,4.2,4.2,0,0,0-1.75-.35h-3.42a.17.17,0,0,0-.17.17v9.46a.17.17,0,0,0,.05.12A.13.13,0,0,0,498.86,76.64Zm1.46-8.33s0-.07.06-.07h1.95a1.62,1.62,0,0,1,1.21.47A1.8,1.8,0,0,1,504,70v3.54a1.82,1.82,0,0,1-.45,1.25,1.57,1.57,0,0,1-1.19.47h-2s-.06,0-.06-.07Z"/><path class="cls-1" d="M507.51,76.64h1.29a.13.13,0,0,0,.12,0,.17.17,0,0,0,.05-.12v-4s0-.07.07-.07h1.68a.1.1,0,0,1,.08,0l1.85,4a.2.2,0,0,0,.2.12h1.34c.1,0,.15,0,.15-.11a.31.31,0,0,0,0-.08l-2-4.08a0,0,0,0,1,0-.05s0,0,0,0a2.54,2.54,0,0,0,1.38-1,2.71,2.71,0,0,0,.5-1.64,3,3,0,0,0-.36-1.49,2.57,2.57,0,0,0-1-1,3.09,3.09,0,0,0-1.51-.36h-3.85a.17.17,0,0,0-.17.17v9.46a.17.17,0,0,0,.05.12A.13.13,0,0,0,507.51,76.64ZM509,68.31s0-.07.07-.07h2.1a1.48,1.48,0,0,1,1.08.41,1.55,1.55,0,0,1,0,2.12,1.51,1.51,0,0,1-1.08.4H509c-.05,0-.07,0-.07-.07Z"/><path class="cls-1" d="M517.38,76.35a4.26,4.26,0,0,0,3.73,0,3,3,0,0,0,1.26-1.21,3.64,3.64,0,0,0,.44-1.8V70.15a3.6,3.6,0,0,0-.44-1.79,3,3,0,0,0-1.26-1.2,3.85,3.85,0,0,0-1.87-.43,3.8,3.8,0,0,0-1.85.43,3,3,0,0,0-1.25,1.2,3.5,3.5,0,0,0-.45,1.79v3.19a3.53,3.53,0,0,0,.44,1.8A2.92,2.92,0,0,0,517.38,76.35Zm-.07-6.22a2,2,0,0,1,.53-1.45,1.85,1.85,0,0,1,1.4-.55,1.88,1.88,0,0,1,1.42.55,2,2,0,0,1,.53,1.45v3.26a2,2,0,0,1-.53,1.45,1.91,1.91,0,0,1-1.42.54,1.88,1.88,0,0,1-1.4-.54,2,2,0,0,1-.53-1.45Z"/><path class="cls-1" d="M524.79,76.64h1.28a.17.17,0,0,0,.17-.17V67a.13.13,0,0,0,0-.12.17.17,0,0,0-.12,0h-1.28a.17.17,0,0,0-.12,0,.13.13,0,0,0,0,.12v9.46a.17.17,0,0,0,.17.17Z"/><path class="cls-1" d="M527.91,68.26h2.48a.06.06,0,0,1,.07.07v8.14a.13.13,0,0,0,0,.12.13.13,0,0,0,.11,0h1.29a.13.13,0,0,0,.12,0,.17.17,0,0,0,.05-.12V68.33s0-.07.07-.07h2.58a.21.21,0,0,0,.12-.05.17.17,0,0,0,0-.12V67a.16.16,0,0,0,0-.12.21.21,0,0,0-.12,0h-6.82a.17.17,0,0,0-.17.17v1.08a.18.18,0,0,0,0,.12A.17.17,0,0,0,527.91,68.26Z"/><path class="cls-1" d="M436.63,144.41a4.86,4.86,0,0,0,1.91.35,4,4,0,0,0,2.54-.74,2.45,2.45,0,0,0,.93-2,2.12,2.12,0,0,0-.43-1.37,3,3,0,0,0-1-.87c-.4-.2-.93-.43-1.59-.68s-1.09-.41-1.39-.55a2.15,2.15,0,0,1-.67-.49,1,1,0,0,1-.22-.68,1,1,0,0,1,.43-.91,1.89,1.89,0,0,1,1.19-.33,2.25,2.25,0,0,1,1.49.46,1.39,1.39,0,0,1,.54,1.11v.16a.21.21,0,0,0,.05.12.16.16,0,0,0,.12,0h1.26a.16.16,0,0,0,.12,0,.21.21,0,0,0,.05-.12v-.24a2.61,2.61,0,0,0-.45-1.51,3,3,0,0,0-1.25-1,4.54,4.54,0,0,0-1.86-.37,3.7,3.7,0,0,0-2.39.72,2.33,2.33,0,0,0-.9,1.94,2.18,2.18,0,0,0,.42,1.38,3,3,0,0,0,1,.88,15.35,15.35,0,0,0,1.61.68c.59.23,1,.42,1.33.56a2.35,2.35,0,0,1,.68.5,1,1,0,0,1,.23.67,1.15,1.15,0,0,1-.43.93,1.93,1.93,0,0,1-1.29.37,2.56,2.56,0,0,1-1.57-.43,1.28,1.28,0,0,1-.57-1.07v-.27a.16.16,0,0,0,0-.11.13.13,0,0,0-.12,0h-1.24a.13.13,0,0,0-.12,0,.13.13,0,0,0-.05.11v.35a2.57,2.57,0,0,0,.44,1.49A2.82,2.82,0,0,0,436.63,144.41Z"/><path class="cls-1" d="M445.1,144.36a4.26,4.26,0,0,0,3.73,0,3.06,3.06,0,0,0,1.26-1.21,3.67,3.67,0,0,0,.44-1.81v-3.19a3.56,3.56,0,0,0-.44-1.78,3.12,3.12,0,0,0-1.26-1.21,4.24,4.24,0,0,0-3.72,0,3,3,0,0,0-1.25,1.21,3.46,3.46,0,0,0-.45,1.78v3.19a3.57,3.57,0,0,0,.44,1.81A3,3,0,0,0,445.1,144.36Zm-.07-6.22a2,2,0,0,1,.53-1.46,1.89,1.89,0,0,1,1.4-.55,1.92,1.92,0,0,1,1.42.55,2,2,0,0,1,.53,1.46v3.26a2,2,0,0,1-.53,1.44,1.92,1.92,0,0,1-1.42.55,1.89,1.89,0,0,1-1.4-.55,2,2,0,0,1-.53-1.44Z"/><path class="cls-1" d="M452.51,144.65h1.28a.17.17,0,0,0,.12-.05.15.15,0,0,0,0-.12v-4a.07.07,0,0,1,.07-.07h1.68a.1.1,0,0,1,.09.06l1.85,4a.2.2,0,0,0,.19.13h1.35q.15,0,.15-.12a.27.27,0,0,0,0-.08l-2-4.07a.06.06,0,0,1,0-.06s0,0,0,0a2.53,2.53,0,0,0,1.38-.94,2.74,2.74,0,0,0,.5-1.65,3,3,0,0,0-.37-1.49,2.54,2.54,0,0,0-1-1,3.2,3.2,0,0,0-1.51-.35h-3.85a.13.13,0,0,0-.12.05.16.16,0,0,0-.05.11v9.47a.18.18,0,0,0,.05.12A.17.17,0,0,0,452.51,144.65Zm1.45-8.33a.06.06,0,0,1,.07-.07h2.1a1.5,1.5,0,0,1,1.09.4,1.46,1.46,0,0,1,.41,1.07,1.39,1.39,0,0,1-.41,1.05,1.5,1.5,0,0,1-1.09.4H454a.06.06,0,0,1-.07-.07Z"/><path class="cls-1" d="M460.53,136.26H463a.06.06,0,0,1,.07.07v8.15a.15.15,0,0,0,.05.12.17.17,0,0,0,.12.05h1.28a.17.17,0,0,0,.12-.05.15.15,0,0,0,.05-.12v-8.15c0-.05,0-.07.07-.07h2.58a.21.21,0,0,0,.12,0,.17.17,0,0,0,0-.12V135a.16.16,0,0,0,0-.11.16.16,0,0,0-.12-.05h-6.82a.13.13,0,0,0-.12.05.16.16,0,0,0-.05.11v1.08a.17.17,0,0,0,.17.17Z"/><path class="cls-1" d="M469.18,144.65h1.29a.17.17,0,0,0,.12-.05.18.18,0,0,0,.05-.12V135a.16.16,0,0,0-.05-.11.13.13,0,0,0-.12-.05h-1.29a.13.13,0,0,0-.12.05.16.16,0,0,0-.05.11v9.47a.18.18,0,0,0,.05.12A.17.17,0,0,0,469.18,144.65Z"/><path class="cls-1" d="M472.85,144.65h6.3a.17.17,0,0,0,.12-.05.18.18,0,0,0,.05-.12v-1.07a.16.16,0,0,0-.05-.11.13.13,0,0,0-.12-.05h-4.78s-.06,0-.06-.07v-2.71s0-.07.06-.07h3.21a.16.16,0,0,0,.12,0,.21.21,0,0,0,.05-.12v-1.07a.21.21,0,0,0-.05-.12.17.17,0,0,0-.12-.05h-3.21s-.06,0-.06-.07v-2.61s0-.07.06-.07h4.78a.17.17,0,0,0,.17-.17V135a.16.16,0,0,0-.05-.11.13.13,0,0,0-.12-.05h-6.3a.13.13,0,0,0-.12.05.16.16,0,0,0-.05.11v9.47a.18.18,0,0,0,.05.12A.17.17,0,0,0,472.85,144.65Z"/><path class="cls-1" d="M485.94,140.71a.19.19,0,0,0,0,.11l1.47,2.22a.23.23,0,0,0,.2.11h1.19c.09,0,.14,0,.14-.11a.22.22,0,0,0,0-.1l-1.49-2.19v-.08l1.49-2.18a.14.14,0,0,0,0-.15.14.14,0,0,0-.13-.06h-1.19a.21.21,0,0,0-.2.11L486,140.6A.15.15,0,0,0,485.94,140.71Z"/><path class="cls-1" d="M485.11,143a.23.23,0,0,0,.2.11h1.19c.09,0,.14,0,.14-.11a.22.22,0,0,0,0-.1l-1.5-2.19a.11.11,0,0,1,0-.08l1.5-2.18c0-.06.05-.11,0-.15a.14.14,0,0,0-.13-.06h-1.19a.21.21,0,0,0-.2.11l-1.47,2.21a.21.21,0,0,0,0,.11.3.3,0,0,0,0,.11Z"/><path class="cls-1" d="M493.93,144.65h1.29a.17.17,0,0,0,.12-.05.18.18,0,0,0,.05-.12v-3.77a.06.06,0,0,1,.07-.07h2.24a3.52,3.52,0,0,0,1.6-.35,2.57,2.57,0,0,0,1.07-1,3,3,0,0,0,.38-1.51,3,3,0,0,0-.37-1.53,2.52,2.52,0,0,0-1-1,3.16,3.16,0,0,0-1.56-.37h-3.85a.21.21,0,0,0-.12,0,.16.16,0,0,0,0,.12v9.48a.17.17,0,0,0,0,.12A.21.21,0,0,0,493.93,144.65Zm1.46-8.35a.06.06,0,0,1,.07-.07h2.08a1.55,1.55,0,0,1,1.15.44,1.52,1.52,0,0,1,.44,1.13,1.48,1.48,0,0,1-.44,1.11,1.58,1.58,0,0,1-1.15.42h-2.08a.06.06,0,0,1-.07-.07Z"/><path class="cls-1" d="M503.61,144.35a4,4,0,0,0,1.84.41,4.12,4.12,0,0,0,1.84-.39,2.91,2.91,0,0,0,1.23-1.12,3.17,3.17,0,0,0,.43-1.67.13.13,0,0,0,0-.1.19.19,0,0,0-.12,0l-1.29-.06a.15.15,0,0,0-.17.16,1.76,1.76,0,0,1-.51,1.32,2.11,2.11,0,0,1-2.74,0,1.75,1.75,0,0,1-.51-1.31V138a1.78,1.78,0,0,1,.51-1.33,1.89,1.89,0,0,1,1.37-.51,1.86,1.86,0,0,1,1.37.51,1.78,1.78,0,0,1,.51,1.33c0,.1.06.15.17.15l1.29-.07a.15.15,0,0,0,.16-.17,3.12,3.12,0,0,0-.43-1.65,2.93,2.93,0,0,0-1.23-1.1,4.12,4.12,0,0,0-1.84-.4,4,4,0,0,0-1.84.41,2.93,2.93,0,0,0-1.24,1.15,3.43,3.43,0,0,0-.43,1.72v3.46a3.43,3.43,0,0,0,.43,1.72A3,3,0,0,0,503.61,144.35Z"/><path class="cls-1" d="M513.29,138h1.31a.21.21,0,0,0,.12-.05.16.16,0,0,0,0-.12v-.37a1.25,1.25,0,0,1,.4-1,1.67,1.67,0,0,1,2.1,0,1.19,1.19,0,0,1,.4.94,4.28,4.28,0,0,1-1.29,2.26l-.65.77c-.94,1.11-1.76,2-2.47,2.79a.32.32,0,0,0-.08.21v1a.15.15,0,0,0,.05.12.17.17,0,0,0,.12.05h6a.21.21,0,0,0,.12-.05.17.17,0,0,0,0-.12v-1.07a.15.15,0,0,0,0-.11.16.16,0,0,0-.12-.05h-4s0,0,0,0,0,0,0-.06l.53-.59c1-1.12,1.76-2,2.21-2.52a4.45,4.45,0,0,0,1.22-2.64,2.57,2.57,0,0,0-.38-1.37,2.67,2.67,0,0,0-1.08-1,3.62,3.62,0,0,0-1.63-.35,3.86,3.86,0,0,0-1.55.31,2.74,2.74,0,0,0-1.1.87,2.34,2.34,0,0,0-.43,1.32v.6a.13.13,0,0,0,0,.12A.16.16,0,0,0,513.29,138Z"/><path class="cls-1" d="M525.63,140.67a.06.06,0,0,1,0,.08l-1.49,2.19a.16.16,0,0,0,0,.15.16.16,0,0,0,.14.06h1.17a.23.23,0,0,0,.2-.11l1.47-2.22a.19.19,0,0,0,0-.11.15.15,0,0,0,0-.11l-1.47-2.21a.21.21,0,0,0-.2-.11h-1.17c-.1,0-.14,0-.14.11a.44.44,0,0,0,0,.1Z"/><path class="cls-1" d="M528,140.67a.06.06,0,0,1,0,.08l-1.49,2.19a.16.16,0,0,0,0,.15.14.14,0,0,0,.13.06h1.18a.24.24,0,0,0,.2-.11l1.47-2.22a.3.3,0,0,0,0-.11.21.21,0,0,0,0-.11L528,138.39a.22.22,0,0,0-.2-.11h-1.18c-.09,0-.14,0-.14.11a.22.22,0,0,0,0,.1Z"/></g></g></svg>