<svg xmlns="http://www.w3.org/2000/svg" viewBox="0 0 728.1 279.09"><defs><style>.cls-1{fill:#1d1d1b;}</style></defs><title>Asset 7</title><g id="Layer_2" data-name="Layer 2"><g id="CYNAP"><path class="cls-1" d="M463.1,152.4l-49.39-19.6a54.69,54.69,0,0,0-18.17-3.1,36.05,36.05,0,0,0-4.37.25l-82.46,10.48c-8.32,1.06-12.56,2.64-12.61,4.71,0,1.19.29,2.85,1.26,3.58.79.61,10.77,6,10.87,6.07l39.39,21.33c4.51,2.44,11.69,4.08,17.88,4.08h0c1,0,2-.06,2.89-.15l-.73,33.36-3.31.64a23.46,23.46,0,0,1-14.46-2.7l-41.13-25.88a76.69,76.69,0,0,1-7.23-4.95l-.4-.7a1.5,1.5,0,0,0-2.61,1.49l.47.82c.58,1,5.37,4.12,8.18,5.88l41.12,25.88c3.34,2.1,8.67,3.41,13.19,3.41a18.51,18.51,0,0,0,3.44-.3l93.91-18.2c9.19-1.78,9.64-3.06,9.83-3.61l.36-1a1.51,1.51,0,0,0-.33-1.52.5.5,0,0,0,.12,0l1.71-.71a2.65,2.65,0,0,0,1.64-1.69,1.78,1.78,0,0,0-.36-1.58l-.76-.92a2.61,2.61,0,0,0,1.27-1.47,1.75,1.75,0,0,0-.24-1.51l-.69-1a1,1,0,0,0-.34-.3,2.45,2.45,0,0,0,1.31-1.52,1.75,1.75,0,0,0-.36-1.57l-.82-1a1,1,0,0,0-.69-.36l.35-.14a2.63,2.63,0,0,0,1.63-1.7,1.76,1.76,0,0,0-.36-1.57l-.82-1a.7.7,0,0,0-.17-.13,2.72,2.72,0,0,0,1.51-1.59,1.72,1.72,0,0,0-.24-1.51l-.69-1a1,1,0,0,0-.27-.24,2.89,2.89,0,0,0,1.36-1.48,1.76,1.76,0,0,0-.12-1.44l-.57-1s-.07-.08-.11-.12a2.56,2.56,0,0,0,.88-1.16,1.73,1.73,0,0,0-.12-1.44l-.31-.55c1.94-.68,2-1.22,2-1.81s.09-1.4.1-2C474.58,158.26,474.61,157,463.1,152.4Zm-97.6,24.8c-5.64,0-12.41-1.53-16.45-3.72l-39.39-21.33c-5.29-2.86-9.53-5.22-10.37-5.74a3.51,3.51,0,0,1-.16-.7c1.07-.56,4.49-1.61,9.95-2.3l82.47-10.48a31.93,31.93,0,0,1,4-.23,51.25,51.25,0,0,1,17.06,2.89L462,155.19a65.07,65.07,0,0,1,9.55,4.46c0,.15,0,.31,0,.46a84.09,84.09,0,0,1-10,2.08l-92.2,14.74a24,24,0,0,1-3.77.27Zm92.76,18.65L369.67,213l.73-33.23,91.54-14.64c1.42-.22,2.66-.44,3.77-.64l-.81,29.69A54.46,54.46,0,0,1,458.26,195.85Zm12.67-31.48a1.32,1.32,0,0,1-.59.41l-1.71.71a1,1,0,0,0,.39,1.93,1,1,0,0,0,.38-.08l.88-.36a.75.75,0,0,0,.08.24l.49.86a1.47,1.47,0,0,1-.59.42l-1.71.7a1,1,0,0,0-.54,1.31,1,1,0,0,0,1.3.54l.57-.23a1,1,0,0,0,.17.71l.6.87a1.2,1.2,0,0,1-.49.33l-1.71.71a1,1,0,0,0,.38,1.92,1.07,1.07,0,0,0,.39-.07l.29-.13a1,1,0,0,0,.23.73l.73.88a1.2,1.2,0,0,1-.41.26l-1.71.71a1,1,0,0,0,.38,1.92,1.07,1.07,0,0,0,.39-.07l.55-.23a1,1,0,0,0,0,1.29l.73.89a1.33,1.33,0,0,1-.41.25l-1.71.71a1,1,0,0,0-.54,1.31,1,1,0,0,0,.92.62,1.09,1.09,0,0,0,.39-.08l.58-.24a1,1,0,0,0,.15.8l.6.87a1.18,1.18,0,0,1-.49.33l-1.71.71a1,1,0,0,0-.54,1.31,1,1,0,0,0,.92.62,1.09,1.09,0,0,0,.39-.08l.33-.14a1,1,0,0,0,.19.41l.73.88a1.13,1.13,0,0,1-.4.26l-1.71.71a1,1,0,0,0-.54,1.31s0,.06.05.09a1.61,1.61,0,0,0-.61.15l.77-28.21c1.08-.21,2-.41,2.73-.6Z"/><path class="cls-1" d="M298.41,153.2l42.36,23.39c7,3.84,15.71,7.07,19.52,7.2l6.65.22h0a1,1,0,0,0,0-2l-6.66-.22c-3.48-.12-12-3.3-18.61-6.95l-42.36-23.39a1,1,0,1,0-1,1.75Z"/><path class="cls-1" d="M298.4,157.14l42.44,24c6.92,3.91,15.62,7.2,19.39,7.33l6.6.22h0a1,1,0,0,0,0-2l-6.6-.22c-3.45-.12-11.91-3.35-18.48-7.07l-42.43-24a1,1,0,0,0-1.36.38A1,1,0,0,0,298.4,157.14Z"/><path class="cls-1" d="M298.39,161.09l42.51,24.62c6.88,4,15.53,7.33,19.28,7.46l6.54.22h0a1,1,0,0,0,0-2l-6.55-.22c-3.41-.12-11.81-3.41-18.34-7.19l-42.5-24.62a1,1,0,1,0-1,1.73Z"/><path class="cls-1" d="M298.39,165,341,190.27c6.85,4.06,15.44,7.46,19.16,7.59l6.49.22h0a1,1,0,0,0,0-2l-6.49-.22c-3.38-.12-11.72-3.46-18.21-7.31l-42.57-25.24a1,1,0,1,0-1,1.72Z"/><path class="cls-1" d="M298.38,169l40.22,24.39c8.28,5,17.71,9.06,21.47,9.19l6.43.22h0a1,1,0,0,0,0-2l-6.43-.22c-3.35-.12-12.74-4.19-20.5-8.9l-40.23-24.39a1,1,0,0,0-1,1.71Z"/><path class="cls-1" d="M298.37,172.91l40.31,25c8.23,5.11,17.6,9.21,21.33,9.34l6.38.22h0a1,1,0,0,0,0-2l-6.38-.22c-3.31-.12-12.63-4.25-20.34-9l-40.32-25a1,1,0,0,0-1.05,1.7Z"/><path class="cls-1" d="M338.76,202.45c8.19,5.18,17.5,9.35,21.2,9.48l6.33.22h0a1,1,0,0,0,0-2l-6.33-.22c-3.29-.12-12.53-4.32-20.2-9.17l-40.4-25.6a1,1,0,0,0-1.38.31,1,1,0,0,0,.31,1.38Z"/><path class="cls-1" d="M437.67,172.43a9,9,0,0,0-3.63-.76c-4.65,0-9.3,3.45-11.57,8.59-3,6.71-1,14.12,4.43,16.52a9,9,0,0,0,3.63.76c4.65,0,9.3-3.45,11.57-8.59C445.07,182.24,443.08,174.83,437.67,172.43Zm1.69,15.31c-1.8,4.06-5.35,6.8-8.83,6.8a5.87,5.87,0,0,1-2.42-.51c-3.9-1.72-5.2-7.36-2.9-12.56,1.8-4.06,5.35-6.8,8.83-6.8a5.87,5.87,0,0,1,2.42.51C440.36,176.9,441.66,182.54,439.36,187.74Z"/><path class="cls-1" d="M407.44,183.4l-25.75,4.74a4.62,4.62,0,0,0-3.67,4.31l-.06,2.44a3.3,3.3,0,0,0,.91,2.42,3.12,3.12,0,0,0,2.27.93,3.61,3.61,0,0,0,.73-.07L407.65,193a4.7,4.7,0,0,0,3.65-4.35l.05-1.94a3.36,3.36,0,0,0-.92-2.44A3.25,3.25,0,0,0,407.44,183.4Zm1.86,5.22a2.74,2.74,0,0,1-2,2.44l-25.78,5.15a1.26,1.26,0,0,1-1.18-.3,1.3,1.3,0,0,1-.34-1l.06-2.43a2.66,2.66,0,0,1,2-2.39l25.76-4.74a1.63,1.63,0,0,1,.31,0,1.22,1.22,0,0,1,.88.34,1.35,1.35,0,0,1,.35,1Z"/><path class="cls-1" d="M72.15,247.48v-107a1,1,0,0,0-2,0v107a1,1,0,0,0,2,0Z"/><path class="cls-1" d="M138.33,242.5l-16.44-6.08a1.65,1.65,0,0,0-.7-.08l-28.54,3.45V139.73a1.5,1.5,0,0,0-3,0V244.81a1.5,1.5,0,0,0,3,0v-2l28.54-3.45,10.13,3.75L34.69,253.72,24.62,250l40.56-4.26a1.5,1.5,0,0,0,2.88-.57V141.48a1.5,1.5,0,0,0-3,0V242.73l-47.15,5A1.51,1.51,0,0,0,16.58,249a1.49,1.49,0,0,0,1,1.59L34,256.65a1.49,1.49,0,0,0,.51.1h.17L138,245.39a1.49,1.49,0,0,0,.36-2.89Z"/><path class="cls-1" d="M21.62,9.91h1.29A.13.13,0,0,0,23,9.86a.13.13,0,0,0,.05-.12V3.08a.05.05,0,0,1,0-.06s0,0,.05,0l1.76,2.68a.23.23,0,0,0,.2.11h.64a.23.23,0,0,0,.2-.11L27.71,3s0,0,.05,0a.06.06,0,0,1,0,.06V9.74a.17.17,0,0,0,.05.12.13.13,0,0,0,.12.05h1.29a.16.16,0,0,0,.12-.05.17.17,0,0,0,.05-.12V.28a.17.17,0,0,0-.05-.12.21.21,0,0,0-.12,0H28a.24.24,0,0,0-.2.11L25.48,3.68s0,0,0,0a.09.09,0,0,1-.06,0L23.1.22a.23.23,0,0,0-.19-.11H21.62a.17.17,0,0,0-.12.05.17.17,0,0,0-.05.12V9.74a.17.17,0,0,0,.05.12A.13.13,0,0,0,21.62,9.91Z"/><path class="cls-1" d="M32.92,9.63a4.35,4.35,0,0,0,3.73,0A3.12,3.12,0,0,0,37.9,8.41a3.54,3.54,0,0,0,.45-1.8V3.42a3.5,3.5,0,0,0-.45-1.79A3.07,3.07,0,0,0,36.65.43a4.26,4.26,0,0,0-3.73,0,3.07,3.07,0,0,0-1.25,1.2,3.5,3.5,0,0,0-.45,1.79V6.61a3.64,3.64,0,0,0,.44,1.8A3,3,0,0,0,32.92,9.63ZM32.85,3.4A2,2,0,0,1,33.38,2a2.07,2.07,0,0,1,2.81,0,2,2,0,0,1,.53,1.45V6.66a2,2,0,0,1-.53,1.45,2.1,2.1,0,0,1-2.81,0,2,2,0,0,1-.53-1.45Z"/><path class="cls-1" d="M40.32,9.91h1.29a.13.13,0,0,0,.12-.05.17.17,0,0,0,.05-.12l0-6.52s0-.06,0-.06,0,0,0,0l4,6.61a.18.18,0,0,0,.19.11h1.25a.15.15,0,0,0,.16-.17V.28a.16.16,0,0,0,0-.12.21.21,0,0,0-.12,0H46a.17.17,0,0,0-.12.05.17.17,0,0,0,0,.12l0,6.52s0,.06,0,.07a.07.07,0,0,1-.06,0l-4-6.61a.19.19,0,0,0-.19-.11H40.32a.17.17,0,0,0-.12.05.17.17,0,0,0-.05.12V9.74a.17.17,0,0,0,.05.12A.13.13,0,0,0,40.32,9.91Z"/><path class="cls-1" d="M49.69,9.91H51a.17.17,0,0,0,.17-.17V.28a.13.13,0,0,0,0-.12.17.17,0,0,0-.12,0H49.69a.17.17,0,0,0-.12.05.17.17,0,0,0,0,.12V9.74a.17.17,0,0,0,0,.12A.13.13,0,0,0,49.69,9.91Z"/><path class="cls-1" d="M52.81,1.53h2.48a.06.06,0,0,1,.07.07V9.74a.17.17,0,0,0,.17.17h1.28a.13.13,0,0,0,.12-.05.17.17,0,0,0,0-.12V1.6c0-.05,0-.07.07-.07h2.58a.21.21,0,0,0,.12-.05.17.17,0,0,0,0-.12V.28a.16.16,0,0,0,0-.12.21.21,0,0,0-.12,0H52.81a.17.17,0,0,0-.12.05.17.17,0,0,0,0,.12V1.36a.18.18,0,0,0,0,.12A.17.17,0,0,0,52.81,1.53Z"/><path class="cls-1" d="M61.46,9.91h6.3a.13.13,0,0,0,.12-.05.17.17,0,0,0,.05-.12V8.68a.17.17,0,0,0-.17-.17H63c-.05,0-.07,0-.07-.07V5.74s0-.07.07-.07h3.2a.17.17,0,0,0,.17-.17V4.44a.17.17,0,0,0-.17-.17H63c-.05,0-.07,0-.07-.07V1.58A.06.06,0,0,1,63,1.51h4.77a.13.13,0,0,0,.12-.05.17.17,0,0,0,.05-.12V.28a.17.17,0,0,0-.05-.12.17.17,0,0,0-.12,0h-6.3a.17.17,0,0,0-.12.05.17.17,0,0,0-.05.12V9.74a.17.17,0,0,0,.05.12A.13.13,0,0,0,61.46,9.91Z"/><path class="cls-1" d="M71.18,9.62A4,4,0,0,0,73,10a4,4,0,0,0,1.85-.4,2.93,2.93,0,0,0,1.23-1.16,3.37,3.37,0,0,0,.43-1.73V.28a.16.16,0,0,0,0-.12.21.21,0,0,0-.12,0H75.07A.17.17,0,0,0,75,.16a.17.17,0,0,0,0,.12V6.76a1.82,1.82,0,0,1-.52,1.35,2.1,2.1,0,0,1-2.74,0,1.82,1.82,0,0,1-.52-1.35V.28a.17.17,0,0,0-.05-.12.17.17,0,0,0-.12,0H69.67a.17.17,0,0,0-.12.05.13.13,0,0,0,0,.12V6.73a3.28,3.28,0,0,0,.44,1.73A2.9,2.9,0,0,0,71.18,9.62Z"/><path class="cls-1" d="M78.65,9.91h1.29a.13.13,0,0,0,.12-.05.17.17,0,0,0,0-.12v-4s0-.07.07-.07h1.68a.09.09,0,0,1,.08,0l1.85,4a.2.2,0,0,0,.2.12h1.34c.1,0,.15,0,.15-.11a.31.31,0,0,0,0-.08l-2-4.08a0,0,0,0,1,0,0s0,0,0,0a2.54,2.54,0,0,0,1.38-.95A2.71,2.71,0,0,0,85.4,3,3,3,0,0,0,85,1.48a2.57,2.57,0,0,0-1-1A3.07,3.07,0,0,0,82.5.11H78.65a.21.21,0,0,0-.12.05.17.17,0,0,0,0,.12V9.74a.17.17,0,0,0,0,.12A.16.16,0,0,0,78.65,9.91Zm1.46-8.33a.06.06,0,0,1,.07-.07h2.1a1.46,1.46,0,0,1,1.08.41A1.4,1.4,0,0,1,83.78,3,1.4,1.4,0,0,1,83.36,4a1.5,1.5,0,0,1-1.08.4h-2.1a.06.06,0,0,1-.07-.07Z"/><path class="cls-1" d="M91.29,9.61a3.94,3.94,0,0,0,1.85.41,3.51,3.51,0,0,0,2.54-.89,3.29,3.29,0,0,0,.95-2.51V4.83a.17.17,0,0,0-.17-.17H93.23a.17.17,0,0,0-.12,0,.13.13,0,0,0,0,.12v1a.15.15,0,0,0,.17.16H95A.07.07,0,0,1,95,6.1V7a1.55,1.55,0,0,1-.48,1.21,1.89,1.89,0,0,1-1.33.44,2,2,0,0,1-1.41-.51,1.74,1.74,0,0,1-.55-1.35V3.26a1.79,1.79,0,0,1,.52-1.35,2.13,2.13,0,0,1,2.74,0A1.66,1.66,0,0,1,95,3.14v.07a.15.15,0,0,0,.17.16h1.27a.16.16,0,0,0,.12,0,.21.21,0,0,0,0-.12V3.09a3,3,0,0,0-.44-1.58A3,3,0,0,0,95,.41,4,4,0,0,0,93.14,0a4.06,4.06,0,0,0-1.85.41,3,3,0,0,0-1.23,1.17,3.38,3.38,0,0,0-.43,1.74V6.71a3.39,3.39,0,0,0,.43,1.73A2.89,2.89,0,0,0,91.29,9.61Z"/><path class="cls-1" d="M97.86,9.91h1.4a.17.17,0,0,0,.18-.14l.46-1.5a.1.1,0,0,1,.07,0h3.7s0,0,.07,0l.46,1.5a.17.17,0,0,0,.18.14h1.4c.11,0,.16,0,.16-.12a.14.14,0,0,0,0-.07l-3-9.47a.18.18,0,0,0-.18-.14h-1.75a.18.18,0,0,0-.18.14l-3,9.47a.16.16,0,0,0,0,.14A.14.14,0,0,0,97.86,9.91Zm3.91-7.74s0-.06,0-.06,0,0,0,.06l1.44,4.69c0,.06,0,.08-.05.08h-2.85s-.06,0,0-.08Z"/><path class="cls-1" d="M108.82,9.62a4.43,4.43,0,0,0,3.68,0,2.9,2.9,0,0,0,1.24-1.16,3.37,3.37,0,0,0,.43-1.73V.28a.17.17,0,0,0,0-.12.17.17,0,0,0-.12,0h-1.29a.21.21,0,0,0-.12.05.16.16,0,0,0,0,.12V6.76A1.86,1.86,0,0,1,112,8.11a1.87,1.87,0,0,1-1.37.51,1.9,1.9,0,0,1-1.38-.51,1.86,1.86,0,0,1-.51-1.35V.28a.17.17,0,0,0,0-.12.21.21,0,0,0-.12,0h-1.29a.17.17,0,0,0-.12.05.17.17,0,0,0,0,.12V6.73a3.37,3.37,0,0,0,.44,1.73A3,3,0,0,0,108.82,9.62Z"/><path class="cls-1" d="M117.43,9.61a3.91,3.91,0,0,0,1.85.41,4.1,4.1,0,0,0,1.83-.39,2.85,2.85,0,0,0,1.24-1.11,3.27,3.27,0,0,0,.43-1.67.14.14,0,0,0,0-.1.16.16,0,0,0-.12,0l-1.29-.06c-.11,0-.16,0-.16.15a1.75,1.75,0,0,1-.52,1.33,2.13,2.13,0,0,1-2.73,0,1.74,1.74,0,0,1-.52-1.32V3.23a1.76,1.76,0,0,1,.52-1.33,1.89,1.89,0,0,1,1.37-.5,1.87,1.87,0,0,1,1.36.5,1.76,1.76,0,0,1,.52,1.33.14.14,0,0,0,.16.16l1.29-.07a.17.17,0,0,0,.17-.17,3.19,3.19,0,0,0-.43-1.65A2.85,2.85,0,0,0,121.11.39,4.1,4.1,0,0,0,119.28,0a4,4,0,0,0-1.85.41,3,3,0,0,0-1.23,1.14,3.37,3.37,0,0,0-.43,1.73V6.73a3.37,3.37,0,0,0,.43,1.73A3,3,0,0,0,117.43,9.61Z"/><path class="cls-1" d="M124.68,9.91H126a.13.13,0,0,0,.12-.05.17.17,0,0,0,0-.12v-4s0-.07.07-.07h3.57c.05,0,.07,0,.07.07v4a.17.17,0,0,0,.05.12.13.13,0,0,0,.12.05h1.28a.17.17,0,0,0,.17-.17V.28a.13.13,0,0,0-.05-.12.17.17,0,0,0-.12,0H130a.17.17,0,0,0-.12.05.17.17,0,0,0-.05.12V4.2s0,.07-.07.07h-3.57s-.07,0-.07-.07V.28a.17.17,0,0,0,0-.12.17.17,0,0,0-.12,0h-1.29a.21.21,0,0,0-.12.05.16.16,0,0,0,0,.12V9.74a.15.15,0,0,0,.16.17Z"/><path class="cls-1" d="M133.6,9.91h6.3a.13.13,0,0,0,.12-.05.17.17,0,0,0,0-.12V8.68a.17.17,0,0,0-.17-.17h-4.77s-.07,0-.07-.07V5.74s0-.07.07-.07h3.2a.17.17,0,0,0,.17-.17V4.44a.17.17,0,0,0-.17-.17h-3.2s-.07,0-.07-.07V1.58a.06.06,0,0,1,.07-.07h4.77a.13.13,0,0,0,.12-.05.17.17,0,0,0,0-.12V.28a.17.17,0,0,0,0-.12.17.17,0,0,0-.12,0h-6.3a.17.17,0,0,0-.12.05.17.17,0,0,0,0,.12V9.74a.17.17,0,0,0,0,.12A.13.13,0,0,0,133.6,9.91Z"/><path class="cls-1" d="M30.88,79.47c-.4-.2-.93-.43-1.59-.68a14.82,14.82,0,0,1-1.39-.56,2,2,0,0,1-.67-.48,1,1,0,0,1-.22-.69,1.09,1.09,0,0,1,.42-.91,2,2,0,0,1,1.2-.32,2.2,2.2,0,0,1,1.49.46,1.39,1.39,0,0,1,.54,1.11v.15a.17.17,0,0,0,.05.12.13.13,0,0,0,.12,0h1.26a.13.13,0,0,0,.12,0,.17.17,0,0,0,0-.12v-.23a2.61,2.61,0,0,0-.45-1.51,3,3,0,0,0-1.25-1,4.38,4.38,0,0,0-1.86-.37,3.7,3.7,0,0,0-2.39.72,2.33,2.33,0,0,0-.9,1.94,2.22,2.22,0,0,0,.42,1.38,3,3,0,0,0,1,.88,14.48,14.48,0,0,0,1.61.68c.59.23,1,.41,1.33.56a2.35,2.35,0,0,1,.68.5,1,1,0,0,1,.23.67,1.15,1.15,0,0,1-.43.93,1.93,1.93,0,0,1-1.29.37,2.63,2.63,0,0,1-1.57-.43,1.28,1.28,0,0,1-.57-1.07v-.27a.21.21,0,0,0-.05-.12.16.16,0,0,0-.12,0H25.43a.15.15,0,0,0-.17.16v.35a2.57,2.57,0,0,0,.44,1.49,2.82,2.82,0,0,0,1.25,1,4.86,4.86,0,0,0,1.91.35,3.94,3.94,0,0,0,2.54-.75,2.42,2.42,0,0,0,.93-2,2.17,2.17,0,0,0-.43-1.38A3,3,0,0,0,30.88,79.47Z"/><path class="cls-1" d="M39.15,74.86a4,4,0,0,0-1.87-.43,3.92,3.92,0,0,0-1.85.43,3,3,0,0,0-1.25,1.2,3.53,3.53,0,0,0-.45,1.79V81a3.6,3.6,0,0,0,.44,1.81,3,3,0,0,0,1.25,1.21,4.35,4.35,0,0,0,3.73,0,3.12,3.12,0,0,0,1.26-1.21A3.7,3.7,0,0,0,40.85,81V77.85a3.62,3.62,0,0,0-.44-1.79A3.1,3.1,0,0,0,39.15,74.86Zm.08,6.24a2,2,0,0,1-.53,1.44,1.92,1.92,0,0,1-1.42.55,1.89,1.89,0,0,1-1.4-.55,2,2,0,0,1-.53-1.44V77.84a2,2,0,0,1,.53-1.46,1.89,1.89,0,0,1,1.4-.55,1.92,1.92,0,0,1,1.42.55,2,2,0,0,1,.53,1.46Z"/><path class="cls-1" d="M47.66,80.08a.06.06,0,0,1,0-.06s0,0,0,0a2.58,2.58,0,0,0,1.38-.94,2.76,2.76,0,0,0,.5-1.65,3,3,0,0,0-.37-1.49,2.54,2.54,0,0,0-1-1,3.09,3.09,0,0,0-1.51-.36H42.83a.17.17,0,0,0-.12,0,.16.16,0,0,0-.05.12v9.47a.16.16,0,0,0,.05.12.17.17,0,0,0,.12,0h1.28a.17.17,0,0,0,.12,0,.16.16,0,0,0,.05-.12v-4a.06.06,0,0,1,.07-.07H46a.1.1,0,0,1,.09.06l1.84,4a.22.22,0,0,0,.2.13H49.5c.11,0,.16,0,.16-.12a.2.2,0,0,0,0-.08Zm-1.21-1.21h-2.1a.06.06,0,0,1-.07-.07V76a.06.06,0,0,1,.07-.07h2.1a1.5,1.5,0,0,1,1.09.4A1.46,1.46,0,0,1,48,77.42a1.41,1.41,0,0,1-.41,1A1.5,1.5,0,0,1,46.45,78.87Z"/><path class="cls-1" d="M57.67,74.54H50.85a.17.17,0,0,0-.12,0,.21.21,0,0,0,0,.12v1.08a.17.17,0,0,0,.17.17h2.48a.06.06,0,0,1,.07.07v8.15a.16.16,0,0,0,.05.12.17.17,0,0,0,.12,0h1.28a.17.17,0,0,0,.12,0,.21.21,0,0,0,.05-.12V76s0-.07.07-.07h2.58a.21.21,0,0,0,.12,0,.16.16,0,0,0,0-.12V74.71a.19.19,0,0,0,0-.12A.21.21,0,0,0,57.67,74.54Z"/><path class="cls-1" d="M60.79,74.54H59.5a.17.17,0,0,0-.12,0,.21.21,0,0,0-.05.12v9.47a.21.21,0,0,0,.05.12.17.17,0,0,0,.12,0h1.29a.17.17,0,0,0,.17-.17V74.71a.17.17,0,0,0-.17-.17Z"/><path class="cls-1" d="M69.47,74.54h-6.3a.17.17,0,0,0-.12,0,.21.21,0,0,0,0,.12v9.47a.21.21,0,0,0,0,.12.17.17,0,0,0,.12,0h6.3a.17.17,0,0,0,.17-.17V83.11a.21.21,0,0,0,0-.12.19.19,0,0,0-.12,0H64.69a.07.07,0,0,1-.07-.07V80.17a.07.07,0,0,1,.07-.07H67.9a.13.13,0,0,0,.12,0,.16.16,0,0,0,0-.11V78.87a.18.18,0,0,0,0-.12.17.17,0,0,0-.12,0H64.69a.06.06,0,0,1-.07-.07V76a.06.06,0,0,1,.07-.07h4.78a.17.17,0,0,0,.17-.17V74.71a.17.17,0,0,0-.17-.17Z"/><path class="cls-1" d="M75.43,80.45a.11.11,0,0,1,0-.08l1.5-2.18a.13.13,0,0,0-.11-.22H75.63a.22.22,0,0,0-.2.12L74,80.3a.15.15,0,0,0,0,.11.19.19,0,0,0,0,.11l1.47,2.21a.22.22,0,0,0,.2.12h1.19c.09,0,.14,0,.14-.12a.19.19,0,0,0,0-.09Z"/><path class="cls-1" d="M77.78,80.45v-.08l1.49-2.18a.13.13,0,0,0-.11-.22H78a.22.22,0,0,0-.2.12L76.3,80.3a.15.15,0,0,0,0,.11.19.19,0,0,0,0,.11l1.47,2.21a.22.22,0,0,0,.2.12h1.19c.09,0,.14,0,.14-.12a.19.19,0,0,0,0-.09Z"/><path class="cls-1" d="M86.07,76.34a2.1,2.1,0,0,1,2.74,0,1.78,1.78,0,0,1,.51,1.33c0,.1.06.15.17.15l1.29-.07a.21.21,0,0,0,.12,0,.16.16,0,0,0,0-.12,3.12,3.12,0,0,0-.43-1.65,2.86,2.86,0,0,0-1.23-1.1,4.38,4.38,0,0,0-3.68,0A2.88,2.88,0,0,0,84.36,76a3.43,3.43,0,0,0-.43,1.72v3.46a3.46,3.46,0,0,0,.43,1.72A2.94,2.94,0,0,0,85.6,84a3.87,3.87,0,0,0,1.84.42,4,4,0,0,0,1.84-.4A2.88,2.88,0,0,0,90.51,83a3.17,3.17,0,0,0,.43-1.67.13.13,0,0,0,0-.1.19.19,0,0,0-.12,0l-1.29-.06c-.11,0-.17,0-.17.16a1.76,1.76,0,0,1-.51,1.32,1.89,1.89,0,0,1-1.37.5,1.87,1.87,0,0,1-1.37-.51,1.75,1.75,0,0,1-.52-1.31V77.67A1.78,1.78,0,0,1,86.07,76.34Z"/><path class="cls-1" d="M97.75,74.54a.24.24,0,0,0-.2.13l-2,3.91s-.06,0-.09,0l-2-3.91a.2.2,0,0,0-.19-.13H92q-.15,0-.15.12a.2.2,0,0,0,0,.08l2.88,5.59a.19.19,0,0,1,0,.08v3.75a.17.17,0,0,0,0,.12.21.21,0,0,0,.12,0h1.29a.17.17,0,0,0,.17-.17V80.41a.2.2,0,0,1,0-.08l2.89-5.59a.14.14,0,0,0,0-.14.14.14,0,0,0-.13-.06Z"/><path class="cls-1" d="M107.79,74.54H106.5a.17.17,0,0,0-.12,0,.21.21,0,0,0,0,.12v6.53s0,.05,0,.06a.09.09,0,0,1-.06,0l-4-6.61a.19.19,0,0,0-.19-.12H100.8a.17.17,0,0,0-.12,0,.21.21,0,0,0-.05.12v9.47a.21.21,0,0,0,.05.12.17.17,0,0,0,.12,0h1.29a.17.17,0,0,0,.17-.17l0-6.53a.06.06,0,0,1,0-.06s0,0,0,0l4,6.6a.21.21,0,0,0,.2.12h1.25a.21.21,0,0,0,.12,0,.19.19,0,0,0,0-.12V74.71a.19.19,0,0,0,0-.12A.21.21,0,0,0,107.79,74.54Z"/><path class="cls-1" d="M111.13,84.2l.46-1.49a.09.09,0,0,1,.08-.06h3.69s0,0,.07.06l.46,1.49a.18.18,0,0,0,.18.15h1.4c.11,0,.16,0,.16-.13a.14.14,0,0,0,0-.07l-3-9.46a.18.18,0,0,0-.18-.15h-1.75a.18.18,0,0,0-.18.15l-3,9.46a.19.19,0,0,0,0,.15.17.17,0,0,0,.13,0H111A.18.18,0,0,0,111.13,84.2Zm2.33-7.6s0,0,0,0,0,0,0,0L115,81.29c0,.06,0,.09,0,.09h-2.85s-.06,0,0-.09Z"/><path class="cls-1" d="M119.16,84.35h1.28a.17.17,0,0,0,.12,0,.21.21,0,0,0,0-.12V80.41a.06.06,0,0,1,.07-.07h2.24a3.4,3.4,0,0,0,1.6-.36,2.43,2.43,0,0,0,1.07-1,2.9,2.9,0,0,0,.38-1.51,3.11,3.11,0,0,0-.37-1.54,2.64,2.64,0,0,0-1-1,3.27,3.27,0,0,0-1.56-.36h-3.84a.17.17,0,0,0-.12,0,.13.13,0,0,0-.05.12v9.48a.16.16,0,0,0,.05.12A.17.17,0,0,0,119.16,84.35ZM120.61,76s0-.07.07-.07h2.09a1.58,1.58,0,0,1,1.15.44,1.54,1.54,0,0,1,.43,1.13,1.51,1.51,0,0,1-.43,1.11,1.66,1.66,0,0,1-1.15.42h-2.09c-.05,0-.07,0-.07-.08Z"/><path class="cls-1" d="M131.83,80.37a.11.11,0,0,1,0,.08l-1.49,2.19a.14.14,0,0,0,0,.15.14.14,0,0,0,.13.06h1.18a.23.23,0,0,0,.2-.12l1.46-2.21a.21.21,0,0,0,.05-.11.16.16,0,0,0-.05-.11l-1.46-2.21a.23.23,0,0,0-.2-.12h-1.18c-.09,0-.14,0-.14.12a.22.22,0,0,0,0,.1Z"/><path class="cls-1" d="M134.16,80.37a.06.06,0,0,1,0,.08l-1.48,2.19a.12.12,0,0,0,0,.15.14.14,0,0,0,.13.06H134a.21.21,0,0,0,.19-.12l1.47-2.21a.19.19,0,0,0,0-.11.15.15,0,0,0,0-.11l-1.47-2.21A.21.21,0,0,0,134,78h-1.18c-.09,0-.14,0-.14.12a.22.22,0,0,0,0,.1Z"/><path class="cls-1" d="M623,76.42a4.84,4.84,0,0,0,1.9.35,4,4,0,0,0,2.54-.74,2.43,2.43,0,0,0,.94-2,2.23,2.23,0,0,0-.43-1.38,3.35,3.35,0,0,0-1-.86c-.4-.2-.93-.43-1.59-.68a14.82,14.82,0,0,1-1.39-.56,1.9,1.9,0,0,1-.67-.48,1,1,0,0,1-.22-.68,1.1,1.1,0,0,1,.42-.92,2,2,0,0,1,1.2-.32,2.21,2.21,0,0,1,1.49.46,1.39,1.39,0,0,1,.54,1.11v.16a.16.16,0,0,0,0,.11.13.13,0,0,0,.12,0h1.26a.16.16,0,0,0,.12,0,.16.16,0,0,0,.05-.11v-.24a2.61,2.61,0,0,0-.45-1.51,3,3,0,0,0-1.26-1,4.46,4.46,0,0,0-1.85-.37,3.68,3.68,0,0,0-2.39.72,2.33,2.33,0,0,0-.9,1.94,2.28,2.28,0,0,0,.41,1.38,3.12,3.12,0,0,0,1,.88,14.48,14.48,0,0,0,1.61.68c.59.23,1,.41,1.33.56a2.29,2.29,0,0,1,.67.5,1,1,0,0,1,.24.67,1.15,1.15,0,0,1-.43.93,1.93,1.93,0,0,1-1.29.37,2.63,2.63,0,0,1-1.57-.43,1.28,1.28,0,0,1-.57-1.07V73.6a.21.21,0,0,0,0-.12.16.16,0,0,0-.12,0H621.5a.14.14,0,0,0-.16.16V74a2.5,2.5,0,0,0,.44,1.49A2.82,2.82,0,0,0,623,76.42Z"/><path class="cls-1" d="M631.5,76.37a4.35,4.35,0,0,0,3.73,0,3.1,3.1,0,0,0,1.25-1.21,3.6,3.6,0,0,0,.45-1.81V70.16a3.46,3.46,0,0,0-.45-1.78,3,3,0,0,0-1.25-1.21,4,4,0,0,0-1.87-.43,3.92,3.92,0,0,0-1.85.43,3.06,3.06,0,0,0-1.26,1.21,3.56,3.56,0,0,0-.44,1.78v3.19a3.6,3.6,0,0,0,.44,1.81A3,3,0,0,0,631.5,76.37Zm-.07-6.22a2,2,0,0,1,.53-1.46,1.89,1.89,0,0,1,1.4-.55,1.92,1.92,0,0,1,1.42.55,2,2,0,0,1,.53,1.46v3.26a2,2,0,0,1-.53,1.44,1.92,1.92,0,0,1-1.42.55,1.89,1.89,0,0,1-1.4-.55,2,2,0,0,1-.53-1.44Z"/><path class="cls-1" d="M640.33,76.36a4.05,4.05,0,0,0,1.84.41,4,4,0,0,0,1.84-.41,2.88,2.88,0,0,0,1.24-1.15,3.39,3.39,0,0,0,.43-1.73V67a.21.21,0,0,0,0-.12.16.16,0,0,0-.12,0h-1.29a.15.15,0,0,0-.11,0,.16.16,0,0,0-.05.12v6.49a1.94,1.94,0,0,1-3.26,1.34,1.8,1.8,0,0,1-.52-1.34V67a.21.21,0,0,0,0-.12.16.16,0,0,0-.12,0h-1.29a.16.16,0,0,0-.12,0,.21.21,0,0,0-.05.12v6.46a3.4,3.4,0,0,0,.44,1.73A3,3,0,0,0,640.33,76.36Z"/><path class="cls-1" d="M647.81,76.66h1.29a.21.21,0,0,0,.12,0,.18.18,0,0,0,0-.12v-4c0-.05,0-.07.07-.07H651a.09.09,0,0,1,.08.06l1.85,4a.2.2,0,0,0,.19.13h1.35q.15,0,.15-.12a.27.27,0,0,0,0-.08l-2-4.07a.06.06,0,0,1,0-.06s0,0,0,0a2.53,2.53,0,0,0,1.38-.94,2.74,2.74,0,0,0,.5-1.65,2.92,2.92,0,0,0-.37-1.49,2.54,2.54,0,0,0-1-1,3.09,3.09,0,0,0-1.51-.35h-3.85a.16.16,0,0,0-.12,0,.21.21,0,0,0-.05.12v9.47a.18.18,0,0,0,.05.12A.17.17,0,0,0,647.81,76.66Zm1.46-8.33s0-.07.07-.07h2.1a1.47,1.47,0,0,1,1.08.4,1.42,1.42,0,0,1,.41,1.07,1.37,1.37,0,0,1-.41,1,1.47,1.47,0,0,1-1.08.4h-2.1c-.05,0-.07,0-.07-.07Z"/><path class="cls-1" d="M657.65,76.36a4,4,0,0,0,1.85.41,4.1,4.1,0,0,0,1.83-.39,2.87,2.87,0,0,0,1.24-1.12,3.27,3.27,0,0,0,.43-1.67.14.14,0,0,0,0-.1.16.16,0,0,0-.12,0l-1.29-.06a.14.14,0,0,0-.16.16,1.73,1.73,0,0,1-.52,1.32,2.1,2.1,0,0,1-2.73,0,1.72,1.72,0,0,1-.52-1.31V70a1.75,1.75,0,0,1,.52-1.33,1.86,1.86,0,0,1,1.37-.51,1.83,1.83,0,0,1,1.36.51,1.75,1.75,0,0,1,.52,1.33c0,.1,0,.15.16.15l1.29-.07a.17.17,0,0,0,.17-.17,3.22,3.22,0,0,0-.43-1.65,2.89,2.89,0,0,0-1.24-1.1,4.11,4.11,0,0,0-1.83-.4,4,4,0,0,0-1.85.41,2.91,2.91,0,0,0-1.23,1.15A3.33,3.33,0,0,0,656,70v3.46a3.35,3.35,0,0,0,.43,1.72A3,3,0,0,0,657.65,76.36Z"/><path class="cls-1" d="M664.9,76.66h6.3a.17.17,0,0,0,.12,0,.18.18,0,0,0,0-.12V75.42a.21.21,0,0,0,0-.12.16.16,0,0,0-.12,0h-4.77a.06.06,0,0,1-.07-.07V72.48a.06.06,0,0,1,.07-.07h3.2a.15.15,0,0,0,.17-.16V71.18a.15.15,0,0,0,0-.12.17.17,0,0,0-.12,0h-3.2s-.07,0-.07-.07V68.33s0-.07.07-.07h4.77a.17.17,0,0,0,.12-.05.21.21,0,0,0,0-.12V67a.21.21,0,0,0,0-.12.16.16,0,0,0-.12,0h-6.3a.14.14,0,0,0-.16.16v9.47a.17.17,0,0,0,0,.12A.21.21,0,0,0,664.9,76.66Z"/><path class="cls-1" d="M682.17,75.26a3.27,3.27,0,0,0,.43-1.67.14.14,0,0,0-.05-.1.16.16,0,0,0-.12,0l-1.29-.06a.15.15,0,0,0-.17.16,1.76,1.76,0,0,1-.51,1.32,2.1,2.1,0,0,1-2.73,0,1.72,1.72,0,0,1-.52-1.31V70a1.75,1.75,0,0,1,.52-1.33,1.86,1.86,0,0,1,1.37-.51,1.83,1.83,0,0,1,1.36.51A1.78,1.78,0,0,1,681,70c0,.1.06.15.17.15l1.29-.07a.17.17,0,0,0,.17-.17,3.22,3.22,0,0,0-.43-1.65,3,3,0,0,0-1.24-1.1,4.11,4.11,0,0,0-1.83-.4,4,4,0,0,0-1.85.41A2.91,2.91,0,0,0,676,68.3a3.33,3.33,0,0,0-.43,1.72v3.46A3.35,3.35,0,0,0,676,75.2a3,3,0,0,0,1.23,1.16,4,4,0,0,0,1.85.41,4.1,4.1,0,0,0,1.83-.39A2.93,2.93,0,0,0,682.17,75.26Z"/><path class="cls-1" d="M688.76,67a.17.17,0,0,0-.18-.14h-1.75a.18.18,0,0,0-.19.14l-3,9.46c0,.07,0,.11,0,.15a.17.17,0,0,0,.13,0h1.4a.18.18,0,0,0,.18-.14l.46-1.5s0-.06.07-.06h3.7s.05,0,.07.06l.46,1.5a.18.18,0,0,0,.18.14h1.4c.1,0,.16,0,.16-.13a.14.14,0,0,0,0-.07Zm.36,6.69h-2.84s-.06,0-.06-.09l1.43-4.69s0,0,.05,0,0,0,0,0l1.44,4.69Q689.21,73.69,689.12,73.69Z"/><path class="cls-1" d="M701.07,66.86h-1.29a.21.21,0,0,0-.2.11l-2.28,3.46s0,0,0,0a.07.07,0,0,1-.06,0L694.92,67a.21.21,0,0,0-.2-.11h-1.28a.15.15,0,0,0-.17.16v9.47a.15.15,0,0,0,.05.12.17.17,0,0,0,.12,0h1.28a.17.17,0,0,0,.12,0,.15.15,0,0,0,0-.12V69.82s0,0,0,0a0,0,0,0,1,.05,0l1.76,2.68a.23.23,0,0,0,.2.11h.64a.24.24,0,0,0,.2-.11l1.75-2.69s0,0,0,0a.05.05,0,0,1,0,.06v6.68a.18.18,0,0,0,0,.12.17.17,0,0,0,.12,0h1.29a.16.16,0,0,0,.11,0,.15.15,0,0,0,.05-.12V67a.16.16,0,0,0-.05-.12A.15.15,0,0,0,701.07,66.86Z"/><path class="cls-1" d="M706.82,66a.21.21,0,0,0,.19-.11l1-1.43c0-.06,0-.11,0-.15a.14.14,0,0,0-.13-.06h-1.11a.22.22,0,0,0-.21.11l-.77,1.44a.14.14,0,0,0,0,.14.12.12,0,0,0,.12.06Z"/><path class="cls-1" d="M709.75,66.86h-6.3a.15.15,0,0,0-.17.16v9.47a.15.15,0,0,0,.05.12.17.17,0,0,0,.12,0h6.3a.16.16,0,0,0,.11,0,.15.15,0,0,0,0-.12V75.42a.16.16,0,0,0,0-.12.15.15,0,0,0-.11,0H705a.06.06,0,0,1-.07-.07V72.48a.06.06,0,0,1,.07-.07h3.21a.14.14,0,0,0,.16-.16V71.18a.17.17,0,0,0,0-.12.21.21,0,0,0-.12,0H705c-.05,0-.07,0-.07-.07V68.33s0-.07.07-.07h4.78a.16.16,0,0,0,.11-.05.16.16,0,0,0,0-.12V67a.16.16,0,0,0,0-.12A.15.15,0,0,0,709.75,66.86Z"/><path class="cls-1" d="M716.56,72.39a.06.06,0,0,1,0-.06.05.05,0,0,1,0,0,2.53,2.53,0,0,0,1.38-.94,2.67,2.67,0,0,0,.5-1.65,3,3,0,0,0-.36-1.49,2.63,2.63,0,0,0-1-1,3.06,3.06,0,0,0-1.51-.35h-3.85a.14.14,0,0,0-.16.16v9.47a.17.17,0,0,0,0,.12.21.21,0,0,0,.12,0H713a.17.17,0,0,0,.12,0,.18.18,0,0,0,.05-.12v-4c0-.05,0-.07.07-.07h1.68s.06,0,.08.06l1.85,4a.21.21,0,0,0,.2.13h1.34c.1,0,.16,0,.16-.12a.27.27,0,0,0,0-.08Zm-1.2-1.21h-2.1s-.07,0-.07-.07V68.33s0-.07.07-.07h2.1a1.46,1.46,0,0,1,1.08.4,1.42,1.42,0,0,1,.42,1.07,1.38,1.38,0,0,1-.42,1A1.46,1.46,0,0,1,715.36,71.18Z"/><path class="cls-1" d="M728.08,76.46,725,67a.17.17,0,0,0-.18-.14H723.1a.17.17,0,0,0-.18.14l-3,9.46a.18.18,0,0,0,0,.15.17.17,0,0,0,.13,0h1.4a.18.18,0,0,0,.18-.14l.46-1.5a.1.1,0,0,1,.07-.06h3.7s0,0,.07.06l.46,1.5a.18.18,0,0,0,.18.14h1.4c.11,0,.16,0,.16-.13A.14.14,0,0,0,728.08,76.46Zm-2.68-2.77h-2.85s-.06,0,0-.09l1.43-4.69s0,0,0,0,0,0,0,0l1.44,4.69C725.47,73.66,725.45,73.69,725.4,73.69Z"/><path class="cls-1" d="M602.49,274.08q-.6-.3-1.59-.69a12.52,12.52,0,0,1-1.38-.55,1.94,1.94,0,0,1-.68-.48,1,1,0,0,1-.22-.69,1.07,1.07,0,0,1,.43-.91,2,2,0,0,1,1.19-.32,2.22,2.22,0,0,1,1.5.46,1.41,1.41,0,0,1,.53,1.11v.15a.17.17,0,0,0,.05.12.21.21,0,0,0,.12.05h1.26a.17.17,0,0,0,.17-.17v-.24a2.56,2.56,0,0,0-.45-1.5,3,3,0,0,0-1.25-1,4.54,4.54,0,0,0-1.86-.36,3.78,3.78,0,0,0-2.39.71,2.37,2.37,0,0,0-.9,1.95,2.22,2.22,0,0,0,.42,1.38,2.89,2.89,0,0,0,1,.87,12.05,12.05,0,0,0,1.61.69,13.72,13.72,0,0,1,1.32.56,2.35,2.35,0,0,1,.68.5,1,1,0,0,1,.24.66,1.16,1.16,0,0,1-.44.94,2,2,0,0,1-1.29.36,2.58,2.58,0,0,1-1.56-.42,1.28,1.28,0,0,1-.58-1.07v-.27a.13.13,0,0,0-.05-.12.17.17,0,0,0-.12,0H597a.17.17,0,0,0-.17.17v.35a2.54,2.54,0,0,0,.44,1.48,2.88,2.88,0,0,0,1.25,1,4.72,4.72,0,0,0,1.91.35,3.94,3.94,0,0,0,2.54-.74,2.42,2.42,0,0,0,.93-2,2.17,2.17,0,0,0-.43-1.38A3,3,0,0,0,602.49,274.08Z"/><path class="cls-1" d="M610.76,269.47a4.24,4.24,0,0,0-3.72,0,3,3,0,0,0-1.25,1.2,3.5,3.5,0,0,0-.45,1.79v3.19a3.64,3.64,0,0,0,.44,1.8,2.92,2.92,0,0,0,1.25,1.21,3.94,3.94,0,0,0,1.87.43,3.84,3.84,0,0,0,1.86-.43,3,3,0,0,0,1.26-1.21,3.54,3.54,0,0,0,.45-1.8v-3.19a3.5,3.5,0,0,0-.45-1.79A3,3,0,0,0,610.76,269.47Zm.08,6.23a2,2,0,0,1-.53,1.45,1.89,1.89,0,0,1-1.41.54,1.87,1.87,0,0,1-1.4-.54,2,2,0,0,1-.54-1.45v-3.26a2,2,0,0,1,.54-1.45,1.84,1.84,0,0,1,1.4-.55,1.86,1.86,0,0,1,1.41.55,2,2,0,0,1,.53,1.45Z"/><path class="cls-1" d="M621.05,269.15h-1.29a.17.17,0,0,0-.17.17v6.48a1.82,1.82,0,0,1-.52,1.35,2.1,2.1,0,0,1-2.74,0,1.82,1.82,0,0,1-.52-1.35v-6.48a.13.13,0,0,0,0-.12.17.17,0,0,0-.12-.05h-1.28a.17.17,0,0,0-.12.05.13.13,0,0,0,0,.12v6.45a3.28,3.28,0,0,0,.44,1.73,3,3,0,0,0,1.24,1.16,4,4,0,0,0,1.83.4,4,4,0,0,0,1.85-.4,2.93,2.93,0,0,0,1.23-1.16,3.37,3.37,0,0,0,.43-1.73v-6.45a.16.16,0,0,0,0-.12A.21.21,0,0,0,621.05,269.15Z"/><path class="cls-1" d="M628.17,274.68a0,0,0,0,1,0-.05.05.05,0,0,1,0,0,2.54,2.54,0,0,0,1.38-1,2.71,2.71,0,0,0,.5-1.64,3,3,0,0,0-.36-1.49,2.57,2.57,0,0,0-1-1,3.07,3.07,0,0,0-1.51-.36h-3.85a.21.21,0,0,0-.12.05.17.17,0,0,0-.05.12v9.46a.17.17,0,0,0,.05.12.16.16,0,0,0,.12.05h1.29a.13.13,0,0,0,.12-.05.17.17,0,0,0,0-.12v-4c0-.05,0-.07.07-.07h1.68a.09.09,0,0,1,.08.05l1.85,4a.2.2,0,0,0,.2.12H630c.1,0,.15,0,.15-.11a.13.13,0,0,0,0-.08Zm-1.2-1.2h-2.1a.06.06,0,0,1-.07-.07v-2.79a.06.06,0,0,1,.07-.07H627a1.46,1.46,0,0,1,1.08.41,1.55,1.55,0,0,1,0,2.12A1.5,1.5,0,0,1,627,273.48Z"/><path class="cls-1" d="M633.66,270.94a2.13,2.13,0,0,1,2.74,0,1.79,1.79,0,0,1,.51,1.33c0,.11.05.16.17.16l1.28-.07a.17.17,0,0,0,.12-.05.13.13,0,0,0,0-.12,3.1,3.1,0,0,0-.43-1.65,2.88,2.88,0,0,0-1.23-1.11A4.18,4.18,0,0,0,635,269a4.06,4.06,0,0,0-1.85.41,3,3,0,0,0-1.23,1.14,3.37,3.37,0,0,0-.43,1.73v3.45a3.37,3.37,0,0,0,.43,1.73,3,3,0,0,0,1.23,1.15,3.94,3.94,0,0,0,1.85.41,4.18,4.18,0,0,0,1.84-.39,2.88,2.88,0,0,0,1.23-1.11,3.17,3.17,0,0,0,.43-1.67.11.11,0,0,0,0-.1.16.16,0,0,0-.12,0l-1.28-.06c-.12,0-.17.05-.17.15a1.78,1.78,0,0,1-.51,1.33,1.89,1.89,0,0,1-1.37.49,1.87,1.87,0,0,1-1.37-.5,1.78,1.78,0,0,1-.52-1.32v-3.57A1.8,1.8,0,0,1,633.66,270.94Z"/><path class="cls-1" d="M646.74,269.15h-6.3a.17.17,0,0,0-.12.05.13.13,0,0,0-.05.12v9.46a.17.17,0,0,0,.17.17h6.3a.15.15,0,0,0,.16-.17v-1.06a.16.16,0,0,0,0-.12.21.21,0,0,0-.12-.05H642a.06.06,0,0,1-.07-.07v-2.7a.06.06,0,0,1,.07-.07h3.21a.21.21,0,0,0,.12,0,.17.17,0,0,0,.05-.12v-1.06a.17.17,0,0,0-.05-.12.21.21,0,0,0-.12-.05H642a.06.06,0,0,1-.07-.07v-2.62a.07.07,0,0,1,.07-.07h4.78a.15.15,0,0,0,.16-.17v-1.06a.16.16,0,0,0,0-.12A.21.21,0,0,0,646.74,269.15Z"/><path class="cls-1" d="M655.05,275.06a.11.11,0,0,1,0-.08l1.49-2.19a.15.15,0,0,0,0-.14.14.14,0,0,0-.14-.07h-1.19a.23.23,0,0,0-.19.11l-1.47,2.22a.12.12,0,0,0,0,.11.21.21,0,0,0,0,.11l1.47,2.21a.21.21,0,0,0,.19.11h1.19c.1,0,.14,0,.14-.11a.44.44,0,0,0,0-.1Z"/><path class="cls-1" d="M652.7,275.06a.11.11,0,0,1,0-.08l1.5-2.19a.12.12,0,0,0,0-.14.13.13,0,0,0-.13-.07H652.9a.23.23,0,0,0-.2.11l-1.47,2.22a.12.12,0,0,0,0,.11.21.21,0,0,0,0,.11l1.47,2.21a.21.21,0,0,0,.2.11h1.19c.09,0,.14,0,.14-.11a.22.22,0,0,0,0-.1Z"/><path class="cls-1" d="M666.92,269.5a3.2,3.2,0,0,0-1.55-.36h-3.85a.13.13,0,0,0-.12.05.17.17,0,0,0,0,.12v9.47a.17.17,0,0,0,0,.12.13.13,0,0,0,.12.05h1.29a.16.16,0,0,0,.12-.05.17.17,0,0,0,.05-.12V275s0-.07.07-.07h2.24a3.43,3.43,0,0,0,1.6-.36,2.61,2.61,0,0,0,1.07-1,3,3,0,0,0,.38-1.52,3.18,3.18,0,0,0-.37-1.53A2.67,2.67,0,0,0,666.92,269.5Zm-.64,3.71a1.58,1.58,0,0,1-1.15.42h-2.08s-.07,0-.07-.07v-2.95c0-.05,0-.07.07-.07h2.08a1.48,1.48,0,0,1,1.58,1.57A1.46,1.46,0,0,1,666.28,273.21Z"/><path class="cls-1" d="M671.67,270.94a2.13,2.13,0,0,1,2.74,0,1.79,1.79,0,0,1,.51,1.33c0,.11.05.16.17.16l1.28-.07a.17.17,0,0,0,.12-.05.13.13,0,0,0,0-.12,3.1,3.1,0,0,0-.43-1.65,2.88,2.88,0,0,0-1.23-1.11A4.18,4.18,0,0,0,673,269a4.06,4.06,0,0,0-1.85.41,3,3,0,0,0-1.23,1.14,3.37,3.37,0,0,0-.43,1.73v3.45a3.37,3.37,0,0,0,.43,1.73,3,3,0,0,0,1.23,1.15,3.94,3.94,0,0,0,1.85.41,4.18,4.18,0,0,0,1.84-.39,2.88,2.88,0,0,0,1.23-1.11,3.17,3.17,0,0,0,.43-1.67.11.11,0,0,0,0-.1.16.16,0,0,0-.12,0l-1.28-.06c-.12,0-.17.05-.17.15a1.78,1.78,0,0,1-.51,1.33,1.89,1.89,0,0,1-1.37.49,1.87,1.87,0,0,1-1.37-.5,1.78,1.78,0,0,1-.52-1.32v-3.57A1.8,1.8,0,0,1,671.67,270.94Z"/><path class="cls-1" d="M685,272.69a.23.23,0,0,0-.2-.11h-1.17c-.1,0-.14,0-.14.11a.22.22,0,0,0,0,.1L685,275a.06.06,0,0,1,0,.08l-1.48,2.18a.15.15,0,0,0,0,.15.16.16,0,0,0,.14.06h1.17a.21.21,0,0,0,.2-.11l1.47-2.21a.21.21,0,0,0,0-.11.12.12,0,0,0,0-.11Z"/><path class="cls-1" d="M684.21,275a.12.12,0,0,0,0-.11l-1.47-2.22a.21.21,0,0,0-.19-.11h-1.18c-.09,0-.14,0-.14.11a.22.22,0,0,0,0,.1L682.7,275a.06.06,0,0,1,0,.08l-1.48,2.18c0,.06-.05.11,0,.15s.06.06.13.06h1.18a.2.2,0,0,0,.19-.11l1.47-2.21A.21.21,0,0,0,684.21,275Z"/><path class="cls-1" d="M363.5,106.49a4,4,0,0,0,1.84.41,4.18,4.18,0,0,0,1.84-.39,2.88,2.88,0,0,0,1.23-1.11,3.21,3.21,0,0,0,.43-1.68.11.11,0,0,0,0-.1.21.21,0,0,0-.12,0l-1.28,0c-.11,0-.17,0-.17.15a1.76,1.76,0,0,1-.51,1.32,2.13,2.13,0,0,1-2.74,0,1.79,1.79,0,0,1-.52-1.32v-3.57a1.8,1.8,0,0,1,.52-1.33,2.13,2.13,0,0,1,2.74,0,1.79,1.79,0,0,1,.51,1.33c0,.1.06.15.17.15l1.28-.07a.15.15,0,0,0,.17-.16,3.14,3.14,0,0,0-.43-1.66,2.93,2.93,0,0,0-1.23-1.1,4.18,4.18,0,0,0-1.84-.39,4,4,0,0,0-1.84.4,2.94,2.94,0,0,0-1.24,1.15,3.33,3.33,0,0,0-.43,1.72v3.46a3.33,3.33,0,0,0,.43,1.72A3,3,0,0,0,363.5,106.49Z"/><path class="cls-1" d="M372.61,102.77a.19.19,0,0,1,0,.08v3.76a.16.16,0,0,0,.05.11.15.15,0,0,0,.12,0h1.29a.13.13,0,0,0,.12,0,.16.16,0,0,0,.05-.11v-3.76a.27.27,0,0,1,0-.08l2.89-5.59a.14.14,0,0,0,0-.14.16.16,0,0,0-.13-.05h-1.4a.22.22,0,0,0-.2.12l-2,3.91s-.06,0-.09,0l-2-3.91a.19.19,0,0,0-.19-.12h-1.39c-.1,0-.15,0-.15.11a.31.31,0,0,0,0,.08Z"/><path class="cls-1" d="M378.7,106.79H380a.21.21,0,0,0,.12-.05.17.17,0,0,0,.05-.12l0-6.52s0-.06,0-.07,0,0,0,0l4,6.61a.22.22,0,0,0,.2.11h1.24a.17.17,0,0,0,.12-.05.13.13,0,0,0,.05-.12V97.16a.17.17,0,0,0-.17-.17H384.4a.13.13,0,0,0-.12.05.17.17,0,0,0,0,.12v6.52s0,.06,0,.06,0,0,0,0l-4-6.61a.21.21,0,0,0-.2-.11H378.7a.13.13,0,0,0-.12.05.17.17,0,0,0-.05.12v9.46a.17.17,0,0,0,.17.17Z"/><path class="cls-1" d="M387.45,106.79h1.4a.18.18,0,0,0,.18-.14l.46-1.5a.1.1,0,0,1,.07-.06h3.7s.05,0,.07.06l.46,1.5a.18.18,0,0,0,.18.14h1.4c.11,0,.16,0,.16-.13a.14.14,0,0,0,0-.07l-3.05-9.46a.18.18,0,0,0-.18-.14h-1.75a.17.17,0,0,0-.18.14l-3,9.46c0,.07,0,.12,0,.15A.17.17,0,0,0,387.45,106.79Zm3.91-7.74s0-.06,0-.06,0,0,0,.06l1.44,4.69c0,.05,0,.08-.05.08H390s-.06,0-.05-.08Z"/><path class="cls-1" d="M397.05,106.79h1.29a.17.17,0,0,0,.17-.17v-3.77a.06.06,0,0,1,.07-.07h2.24a3.52,3.52,0,0,0,1.6-.35,2.57,2.57,0,0,0,1.07-1,2.9,2.9,0,0,0,.38-1.51,3,3,0,0,0-.37-1.53,2.52,2.52,0,0,0-1-1A3.27,3.27,0,0,0,400.9,97h-3.85a.21.21,0,0,0-.12,0,.19.19,0,0,0,0,.12v9.48a.16.16,0,0,0,0,.12A.21.21,0,0,0,397.05,106.79Zm1.46-8.35a.06.06,0,0,1,.07-.07h2.09a1.51,1.51,0,0,1,1.58,1.57,1.48,1.48,0,0,1-.44,1.11,1.57,1.57,0,0,1-1.14.42h-2.09c-.05,0-.07,0-.07-.07Z"/><path class="cls-1" d="M497.2,165.09,490.68,159h151a34.54,34.54,0,0,0,34.5-34.5V87.49a1.5,1.5,0,0,0-3,0v37.05a31.53,31.53,0,0,1-31.5,31.5H490.69l6.51-6-1.54-1.65-9.89,9.2,9.89,9.2Z"/><path class="cls-1" d="M640.31,257.49a1.5,1.5,0,0,0,3,0v-36.6a34.54,34.54,0,0,0-34.5-34.5H490.69l6.51-6-1.54-1.65-9.89,9.21,9.89,9.2,1.54-1.65-6.52-6.06H608.81a31.54,31.54,0,0,1,31.5,31.5Z"/><path class="cls-1" d="M295,170.44H152a31.53,31.53,0,0,1-31.5-31.5v-2.52L160.85,135a1.5,1.5,0,0,0,1.44-1.5V36.84a1.5,1.5,0,0,0-1.43-1.5L1.56,28.81a1.56,1.56,0,0,0-1.1.42A1.51,1.51,0,0,0,0,30.31V139a1.5,1.5,0,0,0,1.5,1.5h.05l115.92-4v2.42a34.54,34.54,0,0,0,34.5,34.5H295a1.5,1.5,0,0,0,0-3Zm-292-33V31.88l156.29,6.4v93.81l-38.82,1.32V115.93l6,6.52,1.65-1.54L119,111l-9.2,9.89,1.65,1.54,6-6.51v17.58Z"/></g></g></svg>