<svg xmlns="http://www.w3.org/2000/svg" viewBox="0 0 55.35 55.36"><defs><style>.cls-1{fill:#1d1d1b;}</style></defs><title>Asset 9</title><g id="Layer_2" data-name="Layer 2"><g id="Search_icon" data-name="Search icon"><path class="cls-1" d="M34.29,5.88a20.1,20.1,0,1,0-4,31.51,1.67,1.67,0,0,1,2,.26h0a1.66,1.66,0,0,0,2.35,0l3-2.95a1.66,1.66,0,0,0,0-2.35h0a1.67,1.67,0,0,1-.26-2A20.13,20.13,0,0,0,34.29,5.88ZM29,29a12.61,12.61,0,1,1,0-17.83A12.63,12.63,0,0,1,29,29Z"/><path class="cls-1" d="M54.25,54.26h0a3.75,3.75,0,0,0,0-5.3l-12-12a1.66,1.66,0,0,0-2.35,0L37,39.91a1.66,1.66,0,0,0,0,2.35l12,12A3.75,3.75,0,0,0,54.25,54.26Z"/></g></g></svg>